<svg width="147" height="24" viewBox="0 0 147 24" fill="none" xmlns="http://www.w3.org/2000/svg">
<path d="M63.374 5.93176H71.4335C72.1718 5.93176 72.8417 6.08214 73.4433 6.38292C74.0448 6.67003 74.5165 7.08018 74.8583 7.61338C75.2001 8.13291 75.371 8.73446 75.371 9.41805C75.371 10.1973 75.1522 10.8741 74.7147 11.4483C74.2909 12.0088 73.744 12.3985 73.0741 12.6172V12.6993C73.8671 12.8497 74.5097 13.2393 75.0018 13.8682C75.5077 14.4834 75.7606 15.2149 75.7606 16.0625C75.7606 17.334 75.3505 18.3115 74.5302 18.9951C73.7235 19.665 72.6913 20 71.4335 20H63.374V5.93176ZM70.5927 11.5508C71.1396 11.5508 71.5634 11.4141 71.8642 11.1407C72.165 10.8536 72.3153 10.4913 72.3153 10.0538C72.3153 9.53426 72.1718 9.13778 71.8847 8.86435C71.6113 8.59091 71.2284 8.45419 70.7363 8.45419H66.3681V11.5508H70.5927ZM70.9413 17.4775C71.4609 17.4775 71.8847 17.3272 72.2128 17.0264C72.5409 16.7256 72.705 16.2949 72.705 15.7344C72.705 15.2285 72.5409 14.8184 72.2128 14.5039C71.8847 14.1895 71.4062 14.0323 70.7773 14.0323H66.3681V17.4775H70.9413Z" fill="white"/>
<path d="M81.7628 20.2461C80.6554 20.2461 79.7804 19.9453 79.1378 19.3437C78.5089 18.7422 78.1945 17.7783 78.1945 16.4522V9.21298H81.004V15.8574C81.004 16.5274 81.1612 17.0127 81.4757 17.3135C81.7901 17.6143 82.255 17.7647 82.8702 17.7647C83.4991 17.7647 84.0186 17.5459 84.4288 17.1084C84.8526 16.6572 85.0645 16.1035 85.0645 15.4473V9.21298H87.8741V20H85.4747L85.2696 18.585H85.126C84.251 19.6924 83.13 20.2461 81.7628 20.2461Z" fill="white"/>
<path d="M95.2635 20.2461C93.5409 20.2461 92.2489 19.7881 91.3876 18.8721C90.5399 17.9561 90.1161 16.5342 90.1161 14.6065C90.1161 12.6924 90.5399 11.2774 91.3876 10.3614C92.2489 9.43172 93.5409 8.96688 95.2635 8.96688C96.6991 8.96688 97.8407 9.33602 98.6883 10.0743C99.5496 10.7989 99.9803 11.8653 99.9803 13.2735H97.1502C97.1502 12.6172 96.9793 12.1114 96.6375 11.7559C96.2957 11.4005 95.8172 11.2227 95.202 11.2227C94.4364 11.2227 93.869 11.4962 93.4999 12.043C93.1444 12.5762 92.9667 13.376 92.9667 14.4424V14.7705C92.9667 15.8369 93.1512 16.6436 93.5204 17.1904C93.9032 17.7236 94.5116 17.9902 95.3456 17.9902C95.9334 17.9902 96.3983 17.8125 96.7401 17.457C97.0955 17.0879 97.2733 16.582 97.2733 15.9395H99.9803C99.9803 17.3477 99.5565 18.4209 98.7088 19.1592C97.8612 19.8838 96.7127 20.2461 95.2635 20.2461Z" fill="white"/>
<path d="M102.188 5.17297H104.998V13.4991L108.566 9.21298H111.806L108.238 13.3555L112.011 20H108.792L106.433 15.4268L104.998 16.8213V20H102.188V5.17297Z" fill="white"/>
<path d="M116.531 5.93176H118.274L125.698 15.7344L126.19 16.3906L126.272 16.3701V15.4268V5.93176H128.097V20H126.436L118.971 10.0743L118.438 9.35653L118.356 9.37704V10.2179V20H116.531V5.93176Z" fill="#A1A8C2"/>
<path d="M135.658 20.2461C133.922 20.2461 132.63 19.7881 131.782 18.8721C130.934 17.9561 130.51 16.5342 130.51 14.6065C130.51 12.6788 130.934 11.2569 131.782 10.3409C132.63 9.42489 133.922 8.96689 135.658 8.96689C137.216 8.96689 138.379 9.38388 139.144 10.2179C139.923 11.0382 140.313 12.3643 140.313 14.1963V15.0987H132.377C132.445 16.3428 132.739 17.2656 133.258 17.8672C133.792 18.4551 134.591 18.749 135.658 18.749C136.519 18.749 137.216 18.5508 137.75 18.1543C138.283 17.7578 138.549 17.1494 138.549 16.3291H140.313C140.313 17.5869 139.876 18.5576 139.001 19.2412C138.139 19.9111 137.025 20.2461 135.658 20.2461ZM138.426 13.6016C138.426 11.5098 137.504 10.4639 135.658 10.4639C134.632 10.4639 133.86 10.71 133.34 11.2022C132.835 11.6944 132.527 12.4942 132.418 13.6016H138.426Z" fill="#A1A8C2"/>
<path d="M144.92 20.2256C144.182 20.2256 143.642 20.0068 143.3 19.5693C142.959 19.1318 142.788 18.5918 142.788 17.9492V10.71H141.475V9.21298H142.808L143.198 6.21887H144.592V9.21298H146.417V10.71H144.592V17.7852C144.592 18.4277 144.893 18.749 145.495 18.749H146.417V19.9385C146.24 20.0205 146.007 20.0889 145.72 20.1435C145.433 20.1982 145.167 20.2256 144.92 20.2256Z" fill="#A1A8C2"/>
<path fill-rule="evenodd" clip-rule="evenodd" d="M19.9941 15.4087C19.0265 17.0687 17.3048 18.916 14.4404 18.916C12.8684 18.916 11.8795 18.6802 11.0855 18.49L11.0813 18.489C10.6021 18.3742 10.2338 18.2859 9.72305 18.2486C9.515 18.5299 9.27911 18.923 8.91021 19.5379C8.88664 19.5772 8.86253 19.6173 8.83785 19.6584C8.42462 20.3469 7.81288 21.3613 7.01279 22.1865C6.1659 23.06 4.83886 24 3 24C1.34315 24 0 22.6569 0 21C0 19.4443 1.18422 18.1651 2.70042 18.0148C2.70194 18.0132 2.70348 18.0116 2.70504 18.01C2.95405 17.7532 3.24068 17.3249 3.69344 16.5706C3.73278 16.505 3.77442 16.4351 3.81821 16.3616C4.18362 15.7481 4.69949 14.882 5.28931 14.1879C5.95312 13.4069 7.21703 12.229 9.14286 12.229C10.7047 12.229 11.69 12.465 12.4789 12.654L12.4833 12.6551C13.118 12.8071 13.5657 12.9142 14.4189 12.916C14.4798 12.8623 14.6182 12.7169 14.8105 12.3871C15.3072 11.535 15.7001 10.3151 16.2521 8.60152L16.2725 8.53817C16.7677 7.00084 17.417 4.98808 18.4601 3.38325C19.5943 1.63819 21.4529 0 24.3028 0C27.0374 0 29.0096 1.19972 30.3477 2.9159C31.5001 4.39406 32.1574 6.24221 32.6253 7.55784L32.6503 7.62795C33.2021 9.17878 33.5486 10.1212 34.0051 10.757C34.2944 11.1599 34.4761 11.2672 34.9541 11.2672C37.0039 11.2672 38.6617 11.746 40.0003 12.7824C41.0289 13.5787 41.7195 14.6419 42.096 15.2216C42.1482 15.3019 42.1944 15.373 42.2346 15.4328C42.6404 16.0365 42.8636 16.2729 43.1806 16.454C43.5185 16.6471 44.2811 16.9461 46 16.9461C47.6569 16.9461 49 18.2893 49 19.9461C49 21.603 47.6569 22.9461 46 22.9461C43.6169 22.9461 41.7292 22.5352 40.2038 21.6635C38.6573 20.7798 37.804 19.5965 37.2553 18.7805C37.1849 18.6758 37.1212 18.5808 37.0633 18.4944C36.6071 17.8142 36.5083 17.6669 36.3272 17.5267C36.3262 17.5259 36.325 17.5249 36.3236 17.5238C36.2753 17.4855 36.0001 17.2672 34.9541 17.2672C32.2411 17.2672 30.3588 15.9661 29.1313 14.2564C28.1434 12.8806 27.5351 11.1597 27.0923 9.9072C27.0598 9.81524 27.0282 9.72581 26.9974 9.63923C26.4647 8.14191 26.0899 7.21308 25.6159 6.60509C25.3068 6.20868 25.0196 6 24.3028 6C24.2975 6 24.2921 5.99998 24.2867 5.99995C24.1257 5.9992 23.9165 5.99823 23.4909 6.65301C22.9599 7.46993 22.5285 8.68618 21.9835 10.3779C21.9469 10.4915 21.9096 10.6081 21.8714 10.7273C21.4118 12.1625 20.8333 13.9691 19.9941 15.4087ZM9.95757 17.9708C9.95755 17.9713 9.95245 17.9763 9.94231 17.9846C9.95252 17.9746 9.95759 17.9704 9.95757 17.9708Z" fill="url(#paint0_linear)"/>
<defs>
<linearGradient id="paint0_linear" x1="49" y1="0" x2="1.78646" y2="0" gradientUnits="userSpaceOnUse">
<stop stop-color="#4DFFDF"/>
<stop offset="1" stop-color="#4DA1FF"/>
</linearGradient>
</defs>
</svg>
