<svg width="797" height="694" viewBox="0 0 797 694" fill="none" xmlns="http://www.w3.org/2000/svg">
<path d="M694.258 282.863C699.128 439.083 576.435 569.674 420.214 574.544C263.994 579.415 133.403 456.721 128.533 300.5C123.662 144.28 246.356 13.6896 402.576 8.81902C558.797 3.94846 689.387 126.642 694.258 282.863Z" fill="black"/>
<path fill-rule="evenodd" clip-rule="evenodd" d="M380.831 46.3605C380.987 46.3411 381.143 46.3218 381.299 46.3026L386.169 86.0051C386.038 86.0212 385.907 86.0374 385.776 86.0537C385.645 86.07 385.515 86.0864 385.384 86.1029L380.363 46.4193C380.519 46.3996 380.675 46.38 380.831 46.3605ZM390.679 45.3333C390.992 45.307 391.305 45.2812 391.619 45.2561L394.819 85.1279C394.557 85.1489 394.294 85.1705 394.031 85.1926L390.679 45.3333ZM370.102 47.9367C370.412 47.8842 370.722 47.8323 371.032 47.781L377.562 87.2444C377.302 87.2874 377.043 87.3309 376.783 87.3749L370.102 47.9367ZM401.031 44.681C401.345 44.6678 401.659 44.6552 401.973 44.6433L403.498 84.6142C403.235 84.6242 402.972 84.6348 402.708 84.6458L401.031 44.681ZM359.914 49.8832C360.221 49.8178 360.529 49.7529 360.837 49.6887L369.016 88.8434C368.759 88.8973 368.501 88.9516 368.243 89.0065L359.914 49.8832ZM411.401 44.4636C411.716 44.4636 412.03 44.4642 412.344 44.4654L412.191 84.4651C411.927 84.4641 411.664 84.4636 411.401 84.4636L411.401 44.4636ZM349.816 52.2555C350.121 52.1773 350.425 52.0996 350.73 52.0224L360.545 90.7994C360.29 90.8641 360.035 90.9292 359.78 90.9948L349.816 52.2555ZM421.772 44.6815C422.086 44.6947 422.4 44.7085 422.714 44.7229L420.882 84.6809C420.619 84.6688 420.356 84.6573 420.093 84.6462L421.772 44.6815ZM339.827 55.0494C340.128 54.9585 340.429 54.868 340.73 54.7782L352.164 93.1092C351.911 93.1845 351.659 93.2603 351.407 93.3366L339.827 55.0494ZM432.124 45.3343C432.437 45.3606 432.75 45.3876 433.063 45.4152L429.557 85.2612C429.295 85.2381 429.032 85.2155 428.769 85.1934L432.124 45.3343ZM329.964 58.26C330.26 58.1564 330.557 58.0535 330.854 57.9511L343.886 95.7687C343.637 95.8545 343.388 95.9408 343.14 96.0276L329.964 58.26ZM442.439 46.4208C442.751 46.4603 443.063 46.5003 443.375 46.541L438.2 86.2049C437.939 86.1708 437.677 86.1372 437.416 86.1041L442.439 46.4208ZM320.244 61.8814C320.536 61.7655 320.828 61.6502 321.121 61.5354L335.728 98.773C335.482 98.8692 335.237 98.9659 334.992 99.0631L320.244 61.8814ZM452.7 47.939C453.01 47.9915 453.32 48.0446 453.63 48.0984L446.796 87.5102C446.536 87.4652 446.276 87.4207 446.017 87.3767L452.7 47.939ZM310.684 65.9073C310.972 65.7793 311.259 65.6518 311.546 65.5248L327.702 102.117C327.461 102.223 327.22 102.33 326.98 102.438L310.684 65.9073ZM462.888 49.8862C463.196 49.9517 463.503 50.0178 463.81 50.0844L455.329 89.175C455.072 89.1192 454.814 89.0638 454.556 89.0089L462.888 49.8862ZM301.303 70.3306C301.584 70.1906 301.866 70.0512 302.148 69.9123L319.824 105.795C319.588 105.911 319.351 106.028 319.116 106.145L301.303 70.3306ZM472.985 52.259C473.29 52.3373 473.594 52.4162 473.898 52.4957L463.785 91.1962C463.53 91.1296 463.275 91.0635 463.02 90.9978L472.985 52.259ZM292.114 75.1434C292.39 74.9918 292.665 74.8407 292.941 74.69L312.107 109.8C311.876 109.926 311.645 110.052 311.414 110.18L292.114 75.1434ZM482.974 55.0532C483.275 55.1442 483.576 55.2358 483.876 55.328L472.149 93.5703C471.897 93.493 471.645 93.4163 471.393 93.34L482.974 55.0532ZM283.136 80.3375C283.405 80.1744 283.674 80.0118 283.943 79.8498L304.565 114.125C304.339 114.26 304.113 114.397 303.888 114.533L283.136 80.3375ZM492.837 58.264C493.134 58.3676 493.431 58.4717 493.727 58.5764L480.406 96.2931C480.158 96.2053 479.909 96.1181 479.66 96.0313L492.837 58.264ZM274.383 85.9035C274.645 85.7293 274.907 85.5556 275.169 85.3825L297.21 118.762C296.991 118.907 296.771 119.053 296.552 119.199L274.383 85.9035ZM502.557 61.8858C502.849 62.0017 503.141 62.1181 503.433 62.2352L488.541 99.3598C488.297 99.2617 488.052 99.1641 487.807 99.067L502.557 61.8858ZM265.872 91.832C266.126 91.647 266.381 91.4624 266.635 91.2784L290.057 123.704C289.844 123.858 289.631 124.013 289.418 124.168L265.872 91.832ZM512.117 65.9122C512.404 66.0402 512.69 66.1688 512.977 66.298L496.541 102.765C496.301 102.657 496.06 102.549 495.82 102.442L512.117 65.9122ZM257.617 98.1124C257.863 97.9169 258.109 97.7218 258.356 97.5273L283.118 128.941C282.911 129.105 282.705 129.268 282.498 129.432L257.617 98.1124ZM521.499 70.3362C521.78 70.4761 522.061 70.6167 522.342 70.7577L504.39 106.503C504.155 106.385 503.919 106.267 503.683 106.15L521.499 70.3362ZM249.632 104.734C249.87 104.528 250.108 104.323 250.346 104.118L276.404 134.466C276.205 134.637 276.005 134.809 275.806 134.982L249.632 104.734ZM530.687 75.1498C530.962 75.3014 531.237 75.4536 531.512 75.6064L512.076 110.567C511.93 110.486 511.784 110.405 511.638 110.324C511.553 110.278 511.469 110.231 511.385 110.184L530.687 75.1498ZM241.933 111.684C242.161 111.468 242.391 111.253 242.62 111.039L269.929 140.267C269.736 140.446 269.544 140.627 269.352 140.807L241.933 111.684ZM539.664 80.3443C539.799 80.4259 539.933 80.5077 540.068 80.5895L519.248 114.744C519.136 114.676 519.023 114.607 518.91 114.539L539.664 80.3443ZM235.045 118.427C235.094 118.377 235.143 118.327 235.192 118.277L263.701 146.334C263.609 146.428 263.517 146.522 263.424 146.617C263.332 146.711 263.24 146.805 263.148 146.899L234.531 118.951C234.641 118.839 234.751 118.726 234.861 118.614C234.922 118.552 234.983 118.489 235.045 118.427ZM227.441 126.522C227.651 126.288 227.862 126.055 228.072 125.822L257.734 152.658C257.557 152.854 257.381 153.049 257.205 153.245L227.441 126.522ZM220.675 134.384C220.875 134.141 221.075 133.899 221.276 133.658L252.037 159.226C251.869 159.429 251.701 159.632 251.533 159.835L220.675 134.384ZM214.244 142.523C214.434 142.272 214.624 142.022 214.815 141.772L246.621 166.027C246.461 166.237 246.302 166.447 246.143 166.657L214.244 142.523ZM208.161 150.924C208.34 150.666 208.519 150.408 208.699 150.15L241.495 173.05C241.345 173.266 241.194 173.482 241.044 173.699L208.161 150.924ZM202.435 159.573C202.603 159.308 202.772 159.042 202.941 158.777L236.669 180.281C236.527 180.503 236.386 180.726 236.245 180.948L202.435 159.573ZM197.078 168.455C197.234 168.183 197.391 167.911 197.549 167.639L232.15 187.708C232.018 187.936 231.886 188.165 231.754 188.393L197.078 168.455ZM192.097 177.554C192.242 177.275 192.388 176.996 192.534 176.718L227.946 195.319C227.824 195.552 227.702 195.786 227.58 196.02L192.097 177.554ZM187.503 186.853C187.636 186.569 187.77 186.284 187.904 186L224.065 203.099C223.953 203.338 223.841 203.576 223.729 203.815L187.503 186.853ZM183.303 196.337C183.424 196.047 183.546 195.757 183.668 195.468L220.514 211.035C220.412 211.278 220.31 211.521 220.208 211.764L183.303 196.337ZM179.504 205.989C179.613 205.694 179.722 205.399 179.833 205.105L217.299 219.114C217.207 219.36 217.115 219.607 217.024 219.854L179.504 205.989ZM176.113 215.792C176.21 215.492 176.307 215.193 176.405 214.895L214.426 227.319C214.344 227.57 214.263 227.82 214.182 228.071L176.113 215.792ZM173.137 225.728C173.221 225.425 173.305 225.122 173.39 224.82L211.899 235.638C211.828 235.892 211.757 236.146 211.687 236.399L173.137 225.728ZM170.58 235.781C170.651 235.474 170.723 235.168 170.795 234.863L209.724 244.056C209.664 244.312 209.604 244.569 209.544 244.825L170.58 235.781ZM168.447 245.932C168.505 245.623 168.564 245.314 168.623 245.005L207.904 252.557C207.854 252.816 207.805 253.075 207.756 253.333L168.447 245.932ZM166.742 256.163C166.787 255.852 166.833 255.541 166.879 255.23L206.442 261.127C206.403 261.388 206.365 261.649 206.327 261.909L166.742 256.163ZM165.516 265.988C165.532 265.832 165.549 265.675 165.566 265.519L205.341 269.752C205.327 269.883 205.313 270.014 205.299 270.145C205.286 270.277 205.272 270.408 205.259 270.539L165.467 266.458C165.484 266.301 165.5 266.145 165.516 265.988ZM164.626 276.796C164.645 276.482 164.664 276.168 164.684 275.854L204.602 278.416C204.585 278.679 204.569 278.942 204.553 279.205L164.626 276.796ZM164.218 287.16C164.224 286.846 164.23 286.532 164.237 286.217L204.228 287.102C204.222 287.365 204.216 287.629 204.212 287.892L164.218 287.16ZM164.246 297.533C164.239 297.219 164.232 296.904 164.226 296.59L204.218 295.796C204.223 296.059 204.229 296.323 204.235 296.586L164.246 297.533ZM164.709 307.895C164.689 307.582 164.669 307.268 164.649 306.954L204.573 304.483C204.589 304.746 204.606 305.009 204.623 305.272L164.709 307.895ZM165.607 318.229C165.573 317.917 165.54 317.604 165.507 317.291L205.292 313.147C205.319 313.409 205.347 313.671 205.375 313.933L165.607 318.229ZM657.087 264.267C657.105 264.424 657.122 264.58 657.139 264.736L617.378 269.096C617.363 268.965 617.349 268.834 617.334 268.703L657.087 264.267ZM166.937 328.516C166.89 328.205 166.844 327.894 166.798 327.583L206.374 321.774C206.412 322.034 206.451 322.295 206.49 322.556L166.937 328.516ZM657.988 274.128C658.011 274.441 658.032 274.755 658.053 275.068L618.144 277.757C618.134 277.617 618.125 277.477 618.115 277.338C618.107 277.215 618.098 277.091 618.089 276.968L657.988 274.128ZM168.697 338.738C168.637 338.429 168.578 338.121 168.519 337.812L207.817 330.348C207.866 330.606 207.916 330.865 207.966 331.124L168.697 338.738ZM658.508 284.487C658.517 284.801 658.525 285.116 658.533 285.43L618.546 286.442C618.539 286.178 618.532 285.915 618.525 285.652L658.508 284.487ZM170.885 348.877C170.812 348.571 170.74 348.265 170.668 347.959L209.618 338.853C209.678 339.11 209.738 339.366 209.799 339.623L170.885 348.877ZM658.589 295.074C658.586 295.317 658.582 295.56 658.578 295.802L618.584 295.136C618.586 294.977 618.589 294.819 618.591 294.66C618.593 294.555 618.594 294.45 618.595 294.345L658.592 294.86L658.589 295.074ZM173.495 358.915C173.41 358.613 173.325 358.31 173.241 358.007L211.774 347.276C211.845 347.53 211.916 347.784 211.988 348.037L173.495 358.915ZM658.241 305.226C658.224 305.54 658.206 305.854 658.188 306.168L618.256 303.824C618.272 303.561 618.287 303.298 618.301 303.035L658.241 305.226ZM176.525 368.835C176.427 368.537 176.329 368.238 176.232 367.939L214.282 355.601C214.363 355.852 214.445 356.102 214.527 356.352L176.525 368.835ZM657.456 315.569C657.425 315.882 657.394 316.195 657.363 316.508L617.565 312.49C617.591 312.228 617.617 311.966 617.643 311.704L657.456 315.569ZM179.968 378.62C179.858 378.326 179.748 378.031 179.638 377.737L217.137 363.813C217.228 364.06 217.321 364.307 217.413 364.554L179.968 378.62ZM656.237 325.87C656.193 326.181 656.149 326.492 656.105 326.804L616.51 321.12C616.548 320.859 616.585 320.599 616.621 320.338L656.237 325.87ZM183.819 388.251C183.696 387.962 183.574 387.672 183.452 387.383L220.333 371.898C220.435 372.141 220.538 372.384 220.641 372.626L183.819 388.251ZM654.493 336.623C654.467 336.761 654.442 336.899 654.416 337.038L615.095 329.699C615.125 329.535 615.156 329.371 615.186 329.207C615.204 329.112 615.221 329.017 615.238 328.921L654.587 336.11C654.556 336.281 654.524 336.452 654.493 336.623ZM188.07 397.713C187.935 397.429 187.801 397.145 187.667 396.86L223.866 379.842C223.978 380.081 224.091 380.319 224.204 380.557L188.07 397.713ZM652.509 346.272C652.44 346.579 652.37 346.885 652.299 347.192L613.321 338.21C613.38 337.953 613.439 337.696 613.497 337.439L652.509 346.272ZM192.714 406.988C192.568 406.71 192.422 406.431 192.276 406.153L227.73 387.631C227.852 387.864 227.974 388.097 228.097 388.33L192.714 406.988ZM650.007 356.338C649.925 356.642 649.842 356.945 649.759 357.248L611.191 346.64C611.261 346.386 611.331 346.131 611.399 345.877L650.007 356.338ZM197.744 416.059C197.586 415.788 197.428 415.516 197.271 415.244L231.916 395.25C232.002 395.4 232.089 395.549 232.175 395.698C232.221 395.777 232.267 395.855 232.313 395.934L197.744 416.059ZM647.085 366.291C646.99 366.59 646.895 366.89 646.799 367.189L608.71 354.972C608.791 354.722 608.871 354.47 608.95 354.219L647.085 366.291ZM202.896 424.515C202.811 424.382 202.727 424.249 202.643 424.116L236.419 402.688C236.49 402.8 236.56 402.911 236.631 403.022C236.702 403.133 236.773 403.244 236.844 403.355L203.15 424.912C203.065 424.78 202.98 424.647 202.896 424.515ZM643.553 376.646C643.51 376.763 643.467 376.88 643.424 376.997L605.882 363.194C605.932 363.057 605.982 362.92 606.032 362.783C606.073 362.672 606.113 362.562 606.153 362.451L643.748 376.112C643.683 376.29 643.618 376.468 643.553 376.646ZM208.922 433.53C208.741 433.273 208.561 433.015 208.382 432.757L241.23 409.931C241.38 410.148 241.531 410.364 241.682 410.58L208.922 433.53ZM640.002 385.784C639.882 386.075 639.762 386.365 639.641 386.656L602.711 371.289C602.812 371.046 602.913 370.802 603.013 370.559L640.002 385.784ZM215.05 441.899C214.859 441.649 214.668 441.399 214.478 441.149L246.34 416.965C246.432 417.087 246.524 417.208 246.616 417.329C246.684 417.417 246.751 417.506 246.819 417.594L215.05 441.899ZM635.853 395.291C635.721 395.577 635.589 395.862 635.456 396.147L599.203 379.244C599.314 379.005 599.425 378.766 599.536 378.527L635.853 395.291ZM221.524 450.003C221.323 449.762 221.122 449.52 220.922 449.278L251.74 423.779C251.844 423.904 251.949 424.03 252.053 424.156C252.117 424.233 252.181 424.31 252.245 424.387L221.524 450.003ZM631.309 404.616C631.166 404.895 631.022 405.175 630.877 405.454L595.365 387.045C595.486 386.811 595.607 386.577 595.727 386.342L631.309 404.616ZM228.333 457.829C228.121 457.596 227.911 457.363 227.7 457.129L257.422 430.359C257.598 430.555 257.775 430.751 257.952 430.946L228.333 457.829ZM626.378 413.741C626.223 414.015 626.067 414.288 625.911 414.56L591.202 394.678C591.333 394.449 591.464 394.22 591.594 393.991L626.378 413.741ZM235.463 465.361C235.243 465.138 235.022 464.914 234.802 464.689L263.375 436.696C263.559 436.884 263.744 437.072 263.929 437.26L235.463 465.361ZM621.069 422.652C620.986 422.785 620.902 422.918 620.818 423.052C620.735 423.185 620.651 423.318 620.567 423.451L586.723 402.131C586.793 402.019 586.863 401.907 586.934 401.796C586.98 401.723 587.025 401.649 587.071 401.576L587.143 401.46L621.069 422.652ZM242.904 472.588C242.674 472.374 242.444 472.16 242.215 471.944L269.588 442.777C269.78 442.958 269.973 443.138 270.165 443.317L242.904 472.588ZM615.39 431.332C615.213 431.592 615.035 431.851 614.856 432.109L581.935 409.388C582.085 409.172 582.234 408.954 582.383 408.737L615.39 431.332ZM250.641 479.497C250.402 479.292 250.164 479.088 249.926 478.882L276.051 448.593C276.251 448.765 276.451 448.937 276.651 449.108L250.641 479.497ZM609.353 439.767C609.164 440.018 608.976 440.27 608.786 440.521L576.848 416.439C577.007 416.228 577.165 416.018 577.323 415.807L609.353 439.767ZM258.661 486.075C258.414 485.881 258.167 485.686 257.92 485.491L282.753 454.132C282.959 454.296 283.166 454.459 283.373 454.622L258.661 486.075ZM602.967 447.94C602.768 448.184 602.569 448.427 602.369 448.67L571.469 423.269C571.637 423.066 571.803 422.862 571.97 422.658L602.967 447.94ZM266.949 492.31C266.694 492.127 266.44 491.943 266.185 491.758L289.68 459.386C289.894 459.54 290.107 459.695 290.321 459.849L266.949 492.31ZM596.243 455.839C596.034 456.074 595.825 456.309 595.616 456.543L565.809 429.868C565.984 429.672 566.16 429.475 566.335 429.278L596.243 455.839ZM275.492 498.193C275.23 498.02 274.967 497.847 274.706 497.673L296.822 464.344C297.042 464.489 297.262 464.635 297.482 464.78L275.492 498.193ZM589.194 463.448C588.976 463.675 588.757 463.9 588.538 464.125L559.876 436.224C560.06 436.035 560.243 435.846 560.426 435.656L589.194 463.448ZM284.275 503.712C284.005 503.551 283.736 503.388 283.467 503.226L304.166 468.998C304.391 469.134 304.617 469.27 304.843 469.406L284.275 503.712ZM581.465 471.104C581.36 471.204 581.254 471.304 581.148 471.404L553.682 442.325C553.874 442.144 554.065 441.962 554.256 441.781L581.832 470.756C581.71 470.872 581.588 470.988 581.465 471.104ZM293.281 508.858C293.005 508.708 292.729 508.557 292.453 508.406L311.698 473.34C311.929 473.467 312.16 473.593 312.392 473.719L293.281 508.858ZM573.726 478.135C573.637 478.213 573.548 478.29 573.46 478.367L547.238 448.161C547.339 448.073 547.44 447.985 547.542 447.896C547.639 447.811 547.736 447.726 547.833 447.641L574.171 477.747C574.022 477.877 573.874 478.006 573.726 478.135ZM302.495 513.622C302.213 513.483 301.931 513.344 301.649 513.205L319.406 477.362C319.642 477.479 319.878 477.595 320.115 477.711L302.495 513.622ZM566.222 484.411C565.977 484.608 565.732 484.805 565.486 485.001L540.554 453.721C540.76 453.557 540.966 453.393 541.171 453.228L566.222 484.411ZM311.901 517.994C311.613 517.868 311.326 517.741 311.039 517.613L327.276 481.057C327.516 481.164 327.757 481.271 327.999 481.377L311.901 517.994ZM558.002 490.736C557.748 490.923 557.495 491.109 557.241 491.294L533.643 458.997C533.856 458.841 534.068 458.686 534.28 458.529L558.002 490.736ZM321.025 521.789C320.884 521.734 320.744 521.679 320.604 521.624L335.294 484.419C335.539 484.516 335.784 484.612 336.029 484.708L321.482 521.969C321.329 521.909 321.177 521.849 321.025 521.789ZM549.523 496.711C549.262 496.887 549.001 497.062 548.74 497.236L526.517 463.978C526.736 463.831 526.955 463.685 527.173 463.537L549.523 496.711ZM330.775 525.384C330.627 525.333 330.478 525.281 330.33 525.23L343.446 487.441C343.57 487.485 343.695 487.528 343.82 487.571L344.024 487.641L344.194 487.699L331.222 525.538C331.073 525.487 330.924 525.435 330.775 525.384ZM540.801 502.325C540.533 502.489 540.265 502.653 539.996 502.817L519.188 468.655C519.324 468.572 519.46 468.489 519.596 468.406C519.685 468.352 519.774 468.297 519.862 468.243L540.801 502.325ZM341.102 528.695C340.8 528.605 340.499 528.516 340.198 528.425L351.718 490.12C351.971 490.196 352.223 490.271 352.476 490.346L341.102 528.695ZM531.851 507.568C531.576 507.721 531.301 507.874 531.026 508.026L511.67 473.021C511.9 472.894 512.131 472.766 512.361 472.637L531.851 507.568ZM350.54 531.292C350.424 531.263 350.308 531.233 350.192 531.203L360.095 492.449C360.35 492.514 360.606 492.579 360.861 492.643L351.106 531.435C350.917 531.388 350.728 531.34 350.54 531.292ZM522.688 512.431C522.408 512.572 522.127 512.713 521.846 512.854L503.975 477.068C504.21 476.95 504.446 476.832 504.681 476.713L522.688 512.431ZM361.216 533.753C360.908 533.689 360.601 533.625 360.293 533.56L368.562 494.424C368.762 494.466 368.963 494.508 369.164 494.55L369.335 494.586L361.216 533.753ZM513.33 516.905C513.044 517.035 512.757 517.164 512.47 517.292L496.117 480.788C496.357 480.68 496.598 480.572 496.837 480.464L513.33 516.905ZM371.415 535.645C371.105 535.594 370.795 535.543 370.485 535.491L377.104 496.042C377.364 496.086 377.623 496.129 377.883 496.171L371.415 535.645ZM503.346 521.162C503.203 521.22 503.06 521.277 502.918 521.333L488.11 484.175C488.354 484.078 488.599 483.98 488.843 483.881L503.793 520.983C503.644 521.043 503.495 521.103 503.346 521.162ZM381.154 537.043C381.019 537.026 380.884 537.009 380.748 536.992L385.706 497.301C385.968 497.333 386.229 497.365 386.491 497.397L381.684 537.107C381.507 537.086 381.331 537.064 381.154 537.043ZM494.093 524.657C493.945 524.709 493.797 524.762 493.648 524.814L493.203 524.971L479.966 487.224C480.091 487.181 480.215 487.137 480.34 487.093C480.464 487.049 480.588 487.005 480.712 486.961L494.093 524.657ZM392.005 538.137C391.692 538.113 391.379 538.087 391.065 538.062L394.354 498.197C394.617 498.219 394.879 498.24 395.142 498.261L392.005 538.137ZM484.247 527.921C483.947 528.013 483.646 528.105 483.345 528.197L471.703 489.929C471.955 489.852 472.207 489.775 472.459 489.697L484.247 527.921ZM402.361 538.734C402.046 538.722 401.732 538.71 401.418 538.697L403.032 498.73C403.182 498.736 403.332 498.742 403.482 498.748C403.595 498.752 403.709 498.756 403.822 498.76L402.361 538.734ZM474.273 530.769C473.969 530.849 473.665 530.928 473.361 531.007L463.334 492.284C463.589 492.218 463.844 492.152 464.099 492.085L474.273 530.769ZM412.732 538.895C412.417 538.897 412.103 538.898 411.789 538.898L411.725 498.899C411.988 498.898 412.252 498.897 412.515 498.896L412.732 538.895ZM464.188 533.196C463.881 533.263 463.574 533.33 463.267 533.396L454.874 494.286C455.082 494.242 455.29 494.197 455.498 494.151L455.646 494.119L464.188 533.196ZM423.1 538.622C422.786 538.636 422.472 538.651 422.158 538.664L420.417 498.702C420.552 498.696 420.687 498.69 420.821 498.684C420.95 498.678 421.078 498.672 421.207 498.666L423.1 538.622ZM453.421 535.301C453.308 535.32 453.195 535.34 453.082 535.359L446.337 495.932C446.504 495.903 446.671 495.874 446.839 495.845C446.931 495.829 447.023 495.813 447.116 495.797L454.011 535.198C453.814 535.233 453.618 535.267 453.421 535.301ZM433.449 537.913C433.136 537.941 432.822 537.969 432.509 537.996L429.093 498.142C429.356 498.119 429.618 498.096 429.881 498.073L433.449 537.913ZM443.758 536.772C443.446 536.813 443.135 536.853 442.823 536.893L437.738 497.218C438 497.184 438.261 497.15 438.522 497.116L443.758 536.772Z" fill="url(#paint0_linear)"/>
<path fill-rule="evenodd" clip-rule="evenodd" d="M69.0543 334.95C69.602 334.88 70.1034 335.266 70.1743 335.814C79.4149 407.271 110.855 474.023 160.06 526.657C209.266 579.29 273.753 615.149 344.426 629.174C344.968 629.281 345.32 629.808 345.212 630.349C345.105 630.891 344.579 631.243 344.037 631.136C272.953 617.029 208.091 580.962 158.599 528.023C109.108 475.083 77.4851 407.942 68.1908 336.07C68.12 335.523 68.5066 335.021 69.0543 334.95Z" fill="#16162B"/>
<path fill-rule="evenodd" clip-rule="evenodd" d="M474.062 631.019C473.96 630.477 474.318 629.954 474.861 629.852C545.676 616.563 610.533 581.378 660.283 529.259C710.033 477.14 742.166 410.718 752.15 339.362C752.226 338.815 752.732 338.433 753.279 338.51C753.826 338.586 754.207 339.092 754.131 339.639C744.089 411.41 711.769 478.218 661.73 530.64C611.69 583.062 546.457 618.451 475.23 631.818C474.687 631.92 474.164 631.562 474.062 631.019Z" fill="#16162B"/>
<path opacity="0.5" fill-rule="evenodd" clip-rule="evenodd" d="M410.896 489.801C520.592 489.801 609.515 401.098 609.515 291.682C609.515 182.266 520.592 93.5626 410.896 93.5626C301.199 93.5626 212.276 182.266 212.276 291.682C212.276 401.098 301.199 489.801 410.896 489.801ZM410.896 490.682C521.076 490.682 610.396 401.586 610.396 291.682C610.396 181.777 521.076 92.6816 410.896 92.6816C300.715 92.6816 211.396 181.777 211.396 291.682C211.396 401.586 300.715 490.682 410.896 490.682Z" fill="#252545"/>
<g filter="url(#filter0_d)">
<path fill-rule="evenodd" clip-rule="evenodd" d="M395.363 126.028C419.866 123.651 444.591 126.728 467.763 135.039C490.936 143.349 511.981 156.687 529.388 174.094L525.146 178.337C508.365 161.556 488.077 148.698 465.738 140.686C443.399 132.675 419.563 129.709 395.942 132C372.321 134.292 349.5 141.784 329.118 153.94C308.736 166.096 291.297 182.614 278.055 202.307C264.812 222.001 256.094 244.382 252.525 267.845C248.957 291.307 250.628 315.268 257.417 338.008C264.206 360.748 275.945 381.704 291.792 399.369C307.639 417.035 327.201 430.973 349.072 440.184L346.744 445.713C324.056 436.159 303.764 421.701 287.326 403.376C270.887 385.051 258.71 363.314 251.667 339.725C244.625 316.136 242.892 291.28 246.594 266.942C250.295 242.605 259.339 219.388 273.075 198.959C286.812 178.531 304.902 161.397 326.045 148.787C347.188 136.177 370.86 128.405 395.363 126.028Z" fill="url(#paint1_linear)"/>
</g>
<path fill-rule="evenodd" clip-rule="evenodd" d="M458.357 452.057C417.425 464.05 373.454 459.903 335.486 440.471L338.219 435.13C374.822 453.863 417.211 457.86 456.669 446.299C496.128 434.738 529.658 408.497 550.363 372.973L555.547 375.994C534.069 412.844 499.288 440.064 458.357 452.057Z" fill="#8424FF"/>
<g filter="url(#filter1_d)">
<path fill-rule="evenodd" clip-rule="evenodd" d="M577.203 275.123C581.524 317.512 569.439 359.945 543.434 393.697L538.681 390.034C563.75 357.498 575.399 316.593 571.234 275.731C567.069 234.869 547.406 197.156 516.288 170.347L520.204 165.802C552.485 193.612 572.882 232.734 577.203 275.123Z" fill="url(#paint2_linear)"/>
</g>
<path d="M528.395 168.682C528.395 173.652 524.366 177.682 519.395 177.682C514.424 177.682 510.395 173.652 510.395 168.682C510.395 163.711 514.424 159.682 519.395 159.682C524.366 159.682 528.395 163.711 528.395 168.682Z" fill="#05050F"/>
<path fill-rule="evenodd" clip-rule="evenodd" d="M519.395 173.682C522.156 173.682 524.395 171.443 524.395 168.682C524.395 165.92 522.156 163.682 519.395 163.682C516.634 163.682 514.395 165.92 514.395 168.682C514.395 171.443 516.634 173.682 519.395 173.682ZM519.395 177.682C524.366 177.682 528.395 173.652 528.395 168.682C528.395 163.711 524.366 159.682 519.395 159.682C514.424 159.682 510.395 163.711 510.395 168.682C510.395 173.652 514.424 177.682 519.395 177.682Z" fill="#00F1E7"/>
<path d="M550.395 391.682C550.395 396.652 546.366 400.682 541.395 400.682C536.424 400.682 532.395 396.652 532.395 391.682C532.395 386.711 536.424 382.682 541.395 382.682C546.366 382.682 550.395 386.711 550.395 391.682Z" fill="#05050F"/>
<path fill-rule="evenodd" clip-rule="evenodd" d="M541.395 396.682C544.156 396.682 546.395 394.443 546.395 391.682C546.395 388.92 544.156 386.682 541.395 386.682C538.634 386.682 536.395 388.92 536.395 391.682C536.395 394.443 538.634 396.682 541.395 396.682ZM541.395 400.682C546.366 400.682 550.395 396.652 550.395 391.682C550.395 386.711 546.366 382.682 541.395 382.682C536.424 382.682 532.395 386.711 532.395 391.682C532.395 396.652 536.424 400.682 541.395 400.682Z" fill="#FFB424"/>
<path d="M346.395 437.682C346.395 442.652 342.366 446.682 337.395 446.682C332.424 446.682 328.395 442.652 328.395 437.682C328.395 432.711 332.424 428.682 337.395 428.682C342.366 428.682 346.395 432.711 346.395 437.682Z" fill="#05050F"/>
<path fill-rule="evenodd" clip-rule="evenodd" d="M337.395 442.682C340.156 442.682 342.395 440.443 342.395 437.682C342.395 434.92 340.156 432.682 337.395 432.682C334.634 432.682 332.395 434.92 332.395 437.682C332.395 440.443 334.634 442.682 337.395 442.682ZM337.395 446.682C342.366 446.682 346.395 442.652 346.395 437.682C346.395 432.711 342.366 428.682 337.395 428.682C332.424 428.682 328.395 432.711 328.395 437.682C328.395 442.652 332.424 446.682 337.395 446.682Z" fill="#8424FF"/>
<path d="M538.981 291.975C538.981 362.277 481.99 419.268 411.688 419.268C341.387 419.268 284.396 362.277 284.396 291.975C284.396 221.673 341.387 164.682 411.688 164.682C481.99 164.682 538.981 221.673 538.981 291.975Z" fill="#0D0D1E"/>
<path d="M395.333 233.334H428.667V236.667H395.333V233.334ZM395.333 210L403.667 215.834L412 205L420.333 215.834L428.667 210V230H395.333V210ZM398.667 216.402V226.667H425.333V216.402L419.633 220.392L412 210.467L404.367 220.392L398.667 216.4V216.402Z" fill="#5A5A89"/>
<path d="M629.858 97.4052C644.779 120.448 638.195 151.224 615.152 166.145C592.109 181.066 561.333 174.481 546.412 151.438C531.491 128.395 538.076 97.6194 561.119 82.6986C584.162 67.7778 614.937 74.3621 629.858 97.4052Z" fill="#05050F"/>
<path fill-rule="evenodd" clip-rule="evenodd" d="M612.978 162.787C634.166 149.067 640.221 120.768 626.501 99.5793C612.781 78.3906 584.481 72.3361 563.293 86.0562C542.104 99.7762 536.05 128.075 549.77 149.264C563.49 170.453 591.789 176.507 612.978 162.787ZM615.152 166.145C638.195 151.224 644.779 120.448 629.858 97.4052C614.937 74.3621 584.162 67.7778 561.119 82.6986C538.076 97.6194 531.491 128.395 546.412 151.438C561.333 174.481 592.109 181.066 615.152 166.145Z" fill="url(#paint3_linear)"/>
<path d="M668.413 194.949C681.383 214.978 675.659 241.73 655.63 254.699C635.6 267.669 608.849 261.946 595.879 241.916C582.909 221.886 588.633 195.135 608.663 182.165C628.692 169.196 655.443 174.919 668.413 194.949Z" fill="#05050F"/>
<path fill-rule="evenodd" clip-rule="evenodd" d="M653.456 251.342C671.631 239.573 676.824 215.298 665.056 197.123C653.287 178.947 629.012 173.754 610.837 185.523C592.661 197.292 587.468 221.566 599.237 239.742C611.006 257.917 635.28 263.111 653.456 251.342ZM655.63 254.699C675.659 241.73 681.383 214.978 668.413 194.949C655.443 174.919 628.692 169.196 608.663 182.165C588.633 195.135 582.909 221.886 595.879 241.916C608.849 261.946 635.6 267.669 655.63 254.699Z" fill="#6B01F1"/>
<path d="M701.676 130.236C711.088 144.77 706.935 164.183 692.4 173.594C677.865 183.006 658.453 178.853 649.041 164.318C639.63 149.783 643.783 130.371 658.318 120.959C672.852 111.548 692.265 115.701 701.676 130.236Z" fill="#05050F"/>
<path fill-rule="evenodd" clip-rule="evenodd" d="M690.226 170.237C702.906 162.026 706.53 145.09 698.319 132.41C690.108 119.729 673.172 116.106 660.492 124.317C647.811 132.528 644.188 149.463 652.399 162.144C660.61 174.824 677.545 178.448 690.226 170.237ZM692.4 173.594C706.935 164.183 711.088 144.77 701.676 130.236C692.265 115.701 672.852 111.548 658.318 120.959C643.783 130.371 639.63 149.783 649.041 164.318C658.453 178.853 677.865 183.006 692.4 173.594Z" fill="#5A5A89"/>
<path d="M666.14 149.944L670.109 145.975L673.409 149.275L677.092 145.592L675 143.5H680.833V149.333L678.742 147.242L673.409 152.574L670.109 149.275L667.222 152.161C668.533 154.134 670.544 155.535 672.849 156.079C675.154 156.624 677.58 156.272 679.635 155.095C681.69 153.918 683.221 152.004 683.917 149.74C684.613 147.476 684.423 145.032 683.384 142.904C682.345 140.775 680.537 139.121 678.324 138.277C676.111 137.432 673.66 137.46 671.468 138.356C669.275 139.251 667.505 140.946 666.516 143.098C665.526 145.25 665.392 147.698 666.14 149.945V149.944ZM664.346 151.761L664.334 151.75L664.339 151.745C663.674 150.252 663.331 148.635 663.333 147C663.333 140.557 668.557 135.333 675 135.333C681.444 135.333 686.667 140.557 686.667 147C686.667 153.444 681.444 158.667 675 158.667C670.252 158.667 666.168 155.832 664.346 151.761V151.761Z" fill="#5A5A89"/>
<path fill-rule="evenodd" clip-rule="evenodd" d="M61 221H31C27.134 221 24 224.134 24 228V258C24 261.866 27.134 265 31 265H61C64.866 265 68 261.866 68 258V228C68 224.134 64.866 221 61 221ZM31 220C26.5817 220 23 223.582 23 228V258C23 262.419 26.5817 266 31 266H61C65.4183 266 69 262.419 69 258V228C69 223.582 65.4183 220 61 220H31Z" fill="#252547"/>
<path d="M46.0002 234C51.3922 234 55.8782 237.88 56.8192 243C55.8792 248.12 51.3922 252 46.0002 252C40.6082 252 36.1222 248.12 35.1812 243C36.1212 237.88 40.6082 234 46.0002 234ZM46.0002 250C48.0396 250 50.0185 249.307 51.613 248.035C53.2075 246.764 54.3231 244.989 54.7772 243C54.3214 241.014 53.2051 239.24 51.6108 237.97C50.0165 236.7 48.0385 236.009 46.0002 236.009C43.9618 236.009 41.9838 236.7 40.3895 237.97C38.7952 239.24 37.6789 241.014 37.2232 243C37.6772 244.989 38.7928 246.764 40.3873 248.035C41.9818 249.307 43.9607 250 46.0002 250V250ZM46.0002 247.5C44.8067 247.5 43.6621 247.026 42.8182 246.182C41.9743 245.338 41.5002 244.194 41.5002 243C41.5002 241.807 41.9743 240.662 42.8182 239.818C43.6621 238.974 44.8067 238.5 46.0002 238.5C47.1936 238.5 48.3382 238.974 49.1821 239.818C50.026 240.662 50.5002 241.807 50.5002 243C50.5002 244.194 50.026 245.338 49.1821 246.182C48.3382 247.026 47.1936 247.5 46.0002 247.5ZM46.0002 245.5C46.6632 245.5 47.2991 245.237 47.7679 244.768C48.2368 244.299 48.5002 243.663 48.5002 243C48.5002 242.337 48.2368 241.701 47.7679 241.232C47.2991 240.764 46.6632 240.5 46.0002 240.5C45.3371 240.5 44.7012 240.764 44.2324 241.232C43.7635 241.701 43.5002 242.337 43.5002 243C43.5002 243.663 43.7635 244.299 44.2324 244.768C44.7012 245.237 45.3371 245.5 46.0002 245.5Z" fill="#5A5A89"/>
<path fill-rule="evenodd" clip-rule="evenodd" d="M789 220H759C755.134 220 752 223.134 752 227V257C752 260.866 755.134 264 759 264H789C792.866 264 796 260.866 796 257V227C796 223.134 792.866 220 789 220ZM759 219C754.582 219 751 222.582 751 227V257C751 261.419 754.582 265 759 265H789C793.418 265 797 261.419 797 257V227C797 222.582 793.418 219 789 219H759Z" fill="#252547"/>
<path d="M766.873 233H781.127C781.285 233 781.44 233.038 781.581 233.109C781.722 233.181 781.843 233.285 781.936 233.412L785.759 238.668C785.827 238.762 785.86 238.876 785.854 238.991C785.847 239.107 785.8 239.216 785.722 239.301L774.367 251.602C774.277 251.699 774.152 251.757 774.02 251.762C773.887 251.768 773.758 251.72 773.661 251.63C773.654 251.624 769.861 247.515 762.278 239.301C762.2 239.216 762.153 239.107 762.146 238.991C762.14 238.876 762.173 238.762 762.241 238.668L766.064 233.412C766.157 233.285 766.278 233.181 766.419 233.109C766.56 233.038 766.715 233 766.873 233ZM767.383 235L764.583 238.85L774 249.05L783.417 238.85L780.617 235H767.383Z" fill="#5A5A89"/>
<path fill-rule="evenodd" clip-rule="evenodd" d="M424 591H394C390.134 591 387 594.134 387 598V628C387 631.866 390.134 635 394 635H424C427.866 635 431 631.866 431 628V598C431 594.134 427.866 591 424 591ZM394 590C389.582 590 386 593.582 386 598V628C386 632.419 389.582 636 394 636H424C428.418 636 432 632.419 432 628V598C432 593.582 428.418 590 424 590H394Z" fill="#252547"/>
<path d="M409 621C411.122 621 413.157 620.157 414.657 618.657C416.157 617.157 417 615.122 417 613C417 610.879 416.157 608.844 414.657 607.343C413.157 605.843 411.122 605 409 605C406.878 605 404.843 605.843 403.343 607.343C401.843 608.844 401 610.879 401 613C401 615.122 401.843 617.157 403.343 618.657C404.843 620.157 406.878 621 409 621V621ZM409 623C403.477 623 399 618.523 399 613C399 607.477 403.477 603 409 603C414.523 603 419 607.477 419 613C419 618.523 414.523 623 409 623ZM409 617C410.061 617 411.078 616.579 411.828 615.829C412.579 615.079 413 614.061 413 613C413 611.939 412.579 610.922 411.828 610.172C411.078 609.422 410.061 609 409 609C407.939 609 406.922 609.422 406.172 610.172C405.421 610.922 405 611.939 405 613C405 614.061 405.421 615.079 406.172 615.829C406.922 616.579 407.939 617 409 617V617ZM409 619C407.409 619 405.883 618.368 404.757 617.243C403.632 616.118 403 614.592 403 613C403 611.409 403.632 609.883 404.757 608.758C405.883 607.632 407.409 607 409 607C410.591 607 412.117 607.632 413.243 608.758C414.368 609.883 415 611.409 415 613C415 614.592 414.368 616.118 413.243 617.243C412.117 618.368 410.591 619 409 619ZM409 615C408.47 615 407.961 614.79 407.586 614.414C407.211 614.039 407 613.531 407 613C407 612.47 407.211 611.961 407.586 611.586C407.961 611.211 408.47 611 409 611C409.53 611 410.039 611.211 410.414 611.586C410.789 611.961 411 612.47 411 613C411 613.531 410.789 614.039 410.414 614.414C410.039 614.79 409.53 615 409 615Z" fill="#5A5A89"/>
<defs>
<filter id="filter0_d" x="227.079" y="107.63" width="319.927" height="355.701" filterUnits="userSpaceOnUse" color-interpolation-filters="sRGB">
<feFlood flood-opacity="0" result="BackgroundImageFix"/>
<feColorMatrix in="SourceAlpha" type="matrix" values="0 0 0 0 0 0 0 0 0 0 0 0 0 0 0 0 0 0 127 0"/>
<feOffset/>
<feGaussianBlur stdDeviation="8.8092"/>
<feColorMatrix type="matrix" values="0 0 0 0 0 0 0 0 0 0.945098 0 0 0 0 0.905882 0 0 0 0.42 0"/>
<feBlend mode="normal" in2="BackgroundImageFix" result="effect1_dropShadow"/>
<feBlend mode="normal" in="SourceGraphic" in2="effect1_dropShadow" result="shape"/>
</filter>
<filter id="filter1_d" x="459.515" y="147.632" width="159.625" height="267.02" filterUnits="userSpaceOnUse" color-interpolation-filters="sRGB">
<feFlood flood-opacity="0" result="BackgroundImageFix"/>
<feColorMatrix in="SourceAlpha" type="matrix" values="0 0 0 0 0 0 0 0 0 0 0 0 0 0 0 0 0 0 127 0"/>
<feOffset/>
<feGaussianBlur stdDeviation="8.8092"/>
<feColorMatrix type="matrix" values="0 0 0 0 1 0 0 0 0 0.501961 0 0 0 0 0.141176 0 0 0 0.44 0"/>
<feBlend mode="normal" in2="BackgroundImageFix" result="effect1_dropShadow"/>
<feBlend mode="normal" in="SourceGraphic" in2="effect1_dropShadow" result="shape"/>
</filter>
<linearGradient id="paint0_linear" x1="387.307" y1="75.8036" x2="483.63" y2="549.053" gradientUnits="userSpaceOnUse">
<stop stop-color="#00E0FF"/>
<stop offset="1" stop-color="#096BFF"/>
</linearGradient>
<linearGradient id="paint1_linear" x1="389.883" y1="223.746" x2="411.466" y2="452.785" gradientUnits="userSpaceOnUse">
<stop stop-color="#00F1E7"/>
<stop offset="1" stop-color="#007DF1"/>
</linearGradient>
<linearGradient id="paint2_linear" x1="569.368" y1="321.311" x2="551.532" y2="232.995" gradientUnits="userSpaceOnUse">
<stop stop-color="#FFB524"/>
<stop offset="1" stop-color="#FF5924"/>
</linearGradient>
<linearGradient id="paint3_linear" x1="561.119" y1="82.6986" x2="615.152" y2="166.145" gradientUnits="userSpaceOnUse">
<stop stop-color="#F17401"/>
<stop offset="1" stop-color="#FFB524"/>
</linearGradient>
</defs>
</svg>
