<svg width="685" height="685" viewBox="0 0 685 685" fill="none" xmlns="http://www.w3.org/2000/svg">
<path d="M625.258 333.862C630.128 490.083 507.435 620.673 351.214 625.544C194.994 630.414 64.4033 507.721 59.5328 351.5C54.6622 195.28 177.356 64.6893 333.576 59.8188C489.797 54.9482 620.387 177.642 625.258 333.862Z" fill="black"/>
<path fill-rule="evenodd" clip-rule="evenodd" d="M311.831 97.3604C311.987 97.341 312.143 97.3217 312.299 97.3025L317.169 137.005C317.038 137.021 316.907 137.037 316.776 137.054C316.645 137.07 316.515 137.086 316.384 137.103L311.363 97.4192C311.519 97.3994 311.675 97.3798 311.831 97.3604ZM321.679 96.3332C321.992 96.3069 322.305 96.2811 322.619 96.256L325.819 136.128C325.557 136.149 325.294 136.17 325.031 136.192L321.679 96.3332ZM301.102 98.9366C301.412 98.8841 301.722 98.8322 302.032 98.7809L308.562 138.244C308.302 138.287 308.043 138.331 307.783 138.375L301.102 98.9366ZM332.031 95.6809C332.345 95.6677 332.659 95.6551 332.973 95.6431L334.498 135.614C334.235 135.624 333.972 135.635 333.708 135.646L332.031 95.6809ZM290.914 100.883C291.221 100.818 291.529 100.753 291.837 100.689L300.016 139.843C299.759 139.897 299.501 139.951 299.243 140.006L290.914 100.883ZM342.401 95.4635C342.716 95.4635 343.03 95.4641 343.344 95.4653L343.191 135.465C342.927 135.464 342.664 135.463 342.401 135.463L342.401 95.4635ZM280.816 103.255C281.121 103.177 281.425 103.099 281.73 103.022L291.545 141.799C291.29 141.864 291.035 141.929 290.78 141.995L280.816 103.255ZM352.772 95.6814C353.086 95.6946 353.4 95.7083 353.714 95.7227L351.882 135.681C351.619 135.669 351.356 135.657 351.093 135.646L352.772 95.6814ZM270.827 106.049C271.128 105.958 271.429 105.868 271.73 105.778L283.164 144.109C282.911 144.184 282.659 144.26 282.407 144.336L270.827 106.049ZM363.124 96.3342C363.437 96.3605 363.75 96.3875 364.063 96.415L360.557 136.261C360.295 136.238 360.032 136.215 359.769 136.193L363.124 96.3342ZM260.964 109.26C261.26 109.156 261.557 109.053 261.854 108.951L274.886 146.769C274.637 146.854 274.388 146.941 274.14 147.027L260.964 109.26ZM373.439 97.4207C373.751 97.4601 374.063 97.5002 374.375 97.5409L369.2 137.205C368.939 137.171 368.677 137.137 368.416 137.104L373.439 97.4207ZM251.244 112.881C251.536 112.765 251.828 112.65 252.121 112.535L266.728 149.773C266.482 149.869 266.237 149.966 265.992 150.063L251.244 112.881ZM383.7 98.9389C384.01 98.9914 384.32 99.0445 384.63 99.0982L377.796 138.51C377.536 138.465 377.276 138.421 377.017 138.377L383.7 98.9389ZM241.684 116.907C241.972 116.779 242.259 116.652 242.546 116.525L258.702 153.117C258.461 153.223 258.22 153.33 257.98 153.438L241.684 116.907ZM393.888 100.886C394.196 100.952 394.503 101.018 394.81 101.084L386.329 140.175C386.072 140.119 385.814 140.064 385.556 140.009L393.888 100.886ZM232.303 121.33C232.584 121.19 232.866 121.051 233.148 120.912L250.824 156.795C250.588 156.911 250.351 157.028 250.116 157.145L232.303 121.33ZM403.985 103.259C404.29 103.337 404.594 103.416 404.898 103.496L394.785 142.196C394.53 142.129 394.275 142.063 394.02 141.998L403.985 103.259ZM223.114 126.143C223.39 125.992 223.665 125.841 223.941 125.69L243.107 160.799C242.876 160.926 242.645 161.052 242.414 161.179L223.114 126.143ZM413.974 106.053C414.275 106.144 414.576 106.236 414.876 106.328L403.149 144.57C402.897 144.493 402.645 144.416 402.393 144.34L413.974 106.053ZM214.136 131.337C214.405 131.174 214.674 131.012 214.943 130.85L235.565 165.124C235.339 165.26 235.113 165.397 234.888 165.533L214.136 131.337ZM423.837 109.264C424.134 109.367 424.431 109.472 424.727 109.576L411.406 147.293C411.158 147.205 410.909 147.118 410.66 147.031L423.837 109.264ZM205.383 136.903C205.645 136.729 205.907 136.556 206.169 136.382L228.21 169.762C227.991 169.907 227.771 170.053 227.552 170.199L205.383 136.903ZM433.557 112.886C433.849 113.002 434.141 113.118 434.433 113.235L419.541 150.36C419.297 150.262 419.052 150.164 418.807 150.067L433.557 112.886ZM196.872 142.832C197.126 142.647 197.381 142.462 197.635 142.278L221.057 174.704C220.844 174.858 220.631 175.013 220.418 175.168L196.872 142.832ZM443.117 116.912C443.404 117.04 443.69 117.169 443.977 117.298L427.541 153.765C427.301 153.657 427.06 153.549 426.82 153.442L443.117 116.912ZM188.617 149.112C188.863 148.917 189.109 148.722 189.356 148.527L214.118 179.941C213.911 180.104 213.705 180.268 213.498 180.432L188.617 149.112ZM452.499 121.336C452.78 121.476 453.061 121.617 453.342 121.758L435.39 157.503C435.155 157.385 434.919 157.267 434.683 157.15L452.499 121.336ZM180.632 155.734C180.87 155.528 181.108 155.323 181.346 155.118L207.404 185.465C207.205 185.637 207.005 185.809 206.806 185.981L180.632 155.734ZM461.687 126.15C461.962 126.301 462.237 126.454 462.512 126.606L443.076 161.567C442.93 161.486 442.784 161.405 442.638 161.324C442.553 161.277 442.469 161.231 442.385 161.184L461.687 126.15ZM172.933 162.684C173.161 162.468 173.391 162.253 173.62 162.039L200.929 191.266C200.736 191.446 200.544 191.626 200.352 191.807L172.933 162.684ZM470.664 131.344C470.799 131.426 470.933 131.508 471.068 131.589L450.248 165.744C450.136 165.676 450.023 165.607 449.91 165.539L470.664 131.344ZM166.045 169.427C166.094 169.377 166.143 169.327 166.192 169.277L194.701 197.334C194.609 197.428 194.517 197.522 194.424 197.616C194.332 197.711 194.24 197.805 194.148 197.899L165.531 169.951C165.641 169.839 165.751 169.726 165.861 169.614C165.922 169.552 165.983 169.489 166.045 169.427ZM158.441 177.522C158.651 177.288 158.862 177.055 159.072 176.822L188.734 203.658C188.557 203.854 188.381 204.049 188.205 204.245L158.441 177.522ZM151.675 185.384C151.875 185.141 152.075 184.899 152.276 184.657L183.037 210.226C182.869 210.429 182.701 210.632 182.533 210.835L151.675 185.384ZM145.244 193.523C145.434 193.272 145.624 193.022 145.815 192.772L177.621 217.027C177.461 217.237 177.302 217.447 177.143 217.657L145.244 193.523ZM139.161 201.924C139.34 201.666 139.519 201.408 139.699 201.15L172.495 224.05C172.345 224.266 172.194 224.482 172.044 224.698L139.161 201.924ZM133.435 210.573C133.603 210.308 133.772 210.042 133.941 209.777L167.669 231.281C167.527 231.503 167.386 231.725 167.245 231.948L133.435 210.573ZM128.078 219.455C128.234 219.183 128.391 218.91 128.549 218.639L163.15 238.708C163.018 238.936 162.886 239.164 162.754 239.393L128.078 219.455ZM123.097 228.554C123.242 228.275 123.388 227.996 123.534 227.718L158.946 246.319C158.824 246.552 158.702 246.786 158.58 247.019L123.097 228.554ZM118.503 237.853C118.636 237.568 118.77 237.284 118.904 237L155.065 254.099C154.953 254.337 154.841 254.576 154.729 254.814L118.503 237.853ZM114.303 247.337C114.424 247.047 114.546 246.757 114.668 246.468L151.514 262.035C151.412 262.278 151.31 262.521 151.208 262.764L114.303 247.337ZM110.504 256.989C110.613 256.694 110.722 256.399 110.833 256.105L148.299 270.113C148.207 270.36 148.115 270.607 148.024 270.854L110.504 256.989ZM107.113 266.791C107.21 266.492 107.307 266.193 107.405 265.895L145.426 278.319C145.344 278.57 145.263 278.82 145.182 279.071L107.113 266.791ZM104.137 276.728C104.221 276.425 104.305 276.122 104.39 275.82L142.899 286.638C142.828 286.892 142.757 287.145 142.687 287.399L104.137 276.728ZM101.58 286.781C101.651 286.474 101.723 286.168 101.795 285.862L140.724 295.056C140.664 295.312 140.604 295.568 140.544 295.825L101.58 286.781ZM99.4471 296.932C99.5053 296.623 99.564 296.314 99.6233 296.005L138.904 303.557C138.854 303.816 138.805 304.074 138.756 304.333L99.4471 296.932ZM97.742 307.163C97.7871 306.852 97.8329 306.541 97.8792 306.23L137.442 312.127C137.403 312.388 137.365 312.649 137.327 312.909L97.742 307.163ZM96.5161 316.988C96.5324 316.832 96.5489 316.675 96.5656 316.519L136.341 320.752C136.327 320.883 136.313 321.014 136.299 321.145C136.286 321.276 136.272 321.408 136.259 321.539L96.4675 317.457C96.4835 317.301 96.4997 317.145 96.5161 316.988ZM95.6258 327.795C95.6447 327.482 95.6642 327.168 95.6843 326.854L135.602 329.416C135.585 329.679 135.569 329.942 135.553 330.205L95.6258 327.795ZM95.2184 338.16C95.2241 337.846 95.2305 337.532 95.2374 337.217L135.228 338.102C135.222 338.365 135.216 338.629 135.212 338.892L95.2184 338.16ZM95.2462 348.533C95.2388 348.219 95.2319 347.904 95.2257 347.59L135.218 346.796C135.223 347.059 135.229 347.323 135.235 347.586L95.2462 348.533ZM95.7092 358.895C95.6886 358.581 95.6686 358.268 95.6492 357.954L135.573 355.483C135.589 355.746 135.606 356.009 135.623 356.271L95.7092 358.895ZM96.6066 369.229C96.5728 368.916 96.5397 368.604 96.5071 368.291L136.292 364.147C136.319 364.409 136.347 364.671 136.375 364.933L96.6066 369.229ZM588.087 315.267C588.105 315.424 588.122 315.58 588.139 315.736L548.378 320.096C548.363 319.965 548.349 319.834 548.334 319.703L588.087 315.267ZM97.9367 379.516C97.8898 379.205 97.8436 378.894 97.7979 378.583L137.374 372.774C137.412 373.034 137.451 373.295 137.49 373.555L97.9367 379.516ZM588.988 325.127C589.011 325.441 589.032 325.755 589.053 326.068L549.144 328.757C549.134 328.617 549.125 328.477 549.115 328.338C549.107 328.214 549.098 328.091 549.089 327.968L588.988 325.127ZM99.6971 389.738C99.6372 389.429 99.578 389.12 99.5193 388.812L138.817 381.347C138.866 381.606 138.916 381.865 138.966 382.124L99.6971 389.738ZM589.508 335.487C589.517 335.801 589.525 336.115 589.533 336.43L549.546 337.442C549.539 337.178 549.532 336.915 549.525 336.652L589.508 335.487ZM101.885 399.877C101.812 399.571 101.74 399.265 101.668 398.959L140.618 389.853C140.678 390.11 140.738 390.366 140.799 390.623L101.885 399.877ZM589.589 346.074C589.586 346.317 589.582 346.56 589.578 346.802L549.584 346.136C549.586 345.977 549.589 345.818 549.591 345.66C549.593 345.555 549.594 345.45 549.595 345.345L589.592 345.859L589.589 346.074ZM104.495 409.915C104.41 409.613 104.325 409.31 104.241 409.007L142.774 398.276C142.845 398.53 142.916 398.783 142.988 399.037L104.495 409.915ZM589.241 356.226C589.224 356.54 589.206 356.854 589.188 357.168L549.256 354.823C549.272 354.56 549.287 354.297 549.301 354.034L589.241 356.226ZM107.525 419.835C107.427 419.537 107.329 419.238 107.232 418.939L145.282 406.601C145.363 406.851 145.445 407.102 145.527 407.352L107.525 419.835ZM588.456 366.569C588.425 366.882 588.394 367.195 588.363 367.507L548.565 363.49C548.591 363.228 548.617 362.966 548.643 362.704L588.456 366.569ZM110.968 429.62C110.858 429.325 110.748 429.031 110.638 428.736L148.137 414.813C148.228 415.06 148.321 415.307 148.413 415.553L110.968 429.62ZM587.237 376.87C587.193 377.181 587.149 377.492 587.105 377.803L547.51 372.12C547.548 371.859 547.585 371.598 547.621 371.338L587.237 376.87ZM114.819 439.251C114.696 438.962 114.574 438.672 114.452 438.383L151.333 422.898C151.435 423.141 151.538 423.384 151.641 423.626L114.819 439.251ZM585.493 387.623C585.467 387.761 585.442 387.899 585.416 388.037L546.095 380.698C546.125 380.535 546.156 380.371 546.186 380.207C546.204 380.112 546.221 380.016 546.238 379.921L585.587 387.11C585.556 387.281 585.524 387.452 585.493 387.623ZM119.07 448.713C118.935 448.429 118.801 448.145 118.667 447.86L154.866 430.842C154.978 431.08 155.091 431.319 155.204 431.557L119.07 448.713ZM583.509 397.272C583.44 397.579 583.37 397.885 583.299 398.192L544.321 389.21C544.38 388.953 544.439 388.696 544.497 388.439L583.509 397.272ZM123.714 457.988C123.568 457.709 123.422 457.431 123.276 457.153L158.73 438.631C158.852 438.864 158.974 439.097 159.097 439.33L123.714 457.988ZM581.007 407.338C580.925 407.642 580.842 407.945 580.759 408.248L542.191 397.64C542.261 397.385 542.331 397.131 542.399 396.877L581.007 407.338ZM128.744 467.059C128.586 466.788 128.428 466.516 128.271 466.243L162.916 446.25C163.002 446.4 163.089 446.549 163.175 446.698C163.221 446.777 163.267 446.855 163.313 446.934L128.744 467.059ZM578.085 417.291C577.99 417.59 577.895 417.89 577.799 418.189L539.71 405.972C539.791 405.721 539.871 405.47 539.95 405.219L578.085 417.291ZM133.896 475.514C133.811 475.382 133.727 475.249 133.643 475.116L167.419 453.688C167.49 453.799 167.56 453.911 167.631 454.022C167.702 454.133 167.773 454.244 167.844 454.355L134.15 475.912C134.065 475.78 133.98 475.647 133.896 475.514ZM574.553 427.646C574.51 427.763 574.467 427.88 574.424 427.997L536.882 414.194C536.932 414.057 536.982 413.92 537.032 413.783C537.073 413.672 537.113 413.562 537.153 413.451L574.748 427.112C574.683 427.29 574.618 427.468 574.553 427.646ZM139.922 484.53C139.741 484.273 139.561 484.015 139.382 483.757L172.23 460.931C172.38 461.148 172.531 461.364 172.682 461.579L139.922 484.53ZM571.002 436.784C570.882 437.075 570.762 437.365 570.641 437.656L533.711 422.289C533.812 422.046 533.913 421.802 534.013 421.559L571.002 436.784ZM146.05 492.899C145.859 492.649 145.668 492.399 145.478 492.149L177.34 467.965C177.432 468.087 177.524 468.208 177.616 468.329C177.684 468.417 177.751 468.506 177.819 468.594L146.05 492.899ZM566.853 446.291C566.721 446.577 566.589 446.862 566.456 447.147L530.203 430.244C530.314 430.005 530.425 429.766 530.536 429.527L566.853 446.291ZM152.524 501.003C152.323 500.762 152.122 500.52 151.922 500.278L182.74 474.779C182.844 474.904 182.949 475.03 183.053 475.155C183.117 475.233 183.181 475.31 183.245 475.387L152.524 501.003ZM562.309 455.616C562.166 455.895 562.022 456.175 561.877 456.454L526.365 438.045C526.486 437.811 526.607 437.577 526.727 437.342L562.309 455.616ZM159.333 508.828C159.121 508.596 158.911 508.363 158.7 508.129L188.422 481.359C188.598 481.555 188.775 481.75 188.952 481.946L159.333 508.828ZM557.378 464.741C557.223 465.014 557.067 465.288 556.911 465.56L522.202 445.678C522.333 445.449 522.464 445.22 522.594 444.991L557.378 464.741ZM166.463 516.361C166.243 516.138 166.022 515.914 165.802 515.689L194.375 487.696C194.559 487.884 194.744 488.072 194.929 488.259L166.463 516.361ZM552.069 473.651C551.986 473.785 551.902 473.918 551.818 474.051C551.735 474.185 551.651 474.318 551.567 474.451L517.723 453.131C517.793 453.019 517.863 452.907 517.934 452.796C517.98 452.722 518.025 452.649 518.071 452.576L518.143 452.46L552.069 473.651ZM173.904 523.588C173.674 523.374 173.444 523.159 173.215 522.944L200.588 493.777C200.78 493.958 200.973 494.137 201.165 494.317L173.904 523.588ZM546.39 482.332C546.213 482.591 546.035 482.85 545.856 483.109L512.935 460.388C513.085 460.171 513.234 459.954 513.383 459.737L546.39 482.332ZM181.641 530.497C181.402 530.292 181.164 530.087 180.926 529.882L207.051 499.593C207.251 499.765 207.451 499.937 207.651 500.108L181.641 530.497ZM540.353 490.766C540.164 491.018 539.976 491.269 539.786 491.52L507.848 467.439C508.007 467.228 508.165 467.018 508.323 466.807L540.353 490.766ZM189.661 537.075C189.414 536.88 189.167 536.686 188.92 536.491L213.753 505.132C213.959 505.296 214.166 505.459 214.373 505.622L189.661 537.075ZM533.967 498.94C533.768 499.184 533.569 499.427 533.369 499.67L502.469 474.269C502.637 474.066 502.803 473.862 502.97 473.658L533.967 498.94ZM197.949 543.31C197.694 543.127 197.44 542.942 197.185 542.758L220.68 510.385C220.894 510.54 221.107 510.695 221.321 510.849L197.949 543.31ZM527.243 506.839C527.034 507.074 526.825 507.308 526.616 507.543L496.809 480.868C496.984 480.672 497.16 480.475 497.335 480.278L527.243 506.839ZM206.492 549.193C206.23 549.02 205.967 548.847 205.706 548.673L227.822 515.344C228.042 515.489 228.262 515.635 228.482 515.779L206.492 549.193ZM520.194 514.448C519.976 514.674 519.757 514.9 519.538 515.125L490.876 487.223C491.06 487.035 491.243 486.845 491.426 486.656L520.194 514.448ZM215.275 554.712C215.005 554.55 214.736 554.388 214.467 554.226L235.166 519.998C235.391 520.134 235.617 520.27 235.843 520.406L215.275 554.712ZM512.465 522.104C512.36 522.204 512.254 522.304 512.148 522.404L484.682 493.325C484.874 493.144 485.065 492.962 485.256 492.781L512.832 521.755C512.71 521.872 512.588 521.988 512.465 522.104ZM224.281 559.858C224.005 559.708 223.729 559.557 223.453 559.406L242.698 524.34C242.929 524.467 243.16 524.593 243.392 524.719L224.281 559.858ZM504.726 529.135C504.637 529.212 504.548 529.29 504.46 529.367L478.238 499.161C478.339 499.073 478.44 498.984 478.542 498.896C478.639 498.811 478.736 498.726 478.833 498.641L505.171 528.747C505.022 528.877 504.874 529.006 504.726 529.135ZM233.495 564.622C233.213 564.483 232.931 564.344 232.649 564.205L250.406 528.362C250.642 528.479 250.878 528.595 251.115 528.711L233.495 564.622ZM497.222 535.411C496.977 535.608 496.732 535.805 496.486 536L471.554 504.721C471.76 504.557 471.966 504.392 472.171 504.227L497.222 535.411ZM242.901 568.994C242.613 568.868 242.326 568.741 242.039 568.613L258.276 532.057C258.516 532.164 258.757 532.27 258.999 532.376L242.901 568.994ZM489.002 541.736C488.748 541.923 488.495 542.109 488.241 542.294L464.643 509.997C464.856 509.841 465.068 509.685 465.28 509.529L489.002 541.736ZM252.025 572.789C251.884 572.734 251.744 572.679 251.604 572.624L266.294 535.419C266.539 535.515 266.784 535.612 267.029 535.708L252.482 572.968C252.329 572.909 252.177 572.849 252.025 572.789ZM480.523 547.711C480.262 547.887 480.001 548.062 479.74 548.236L457.517 514.978C457.736 514.831 457.955 514.684 458.173 514.537L480.523 547.711ZM261.775 576.384C261.627 576.333 261.478 576.281 261.33 576.23L274.446 538.441C274.57 538.485 274.695 538.528 274.82 538.571L275.024 538.641L275.194 538.699L262.222 576.537C262.073 576.486 261.924 576.435 261.775 576.384ZM471.801 553.325C471.533 553.489 471.265 553.653 470.996 553.817L450.188 519.655C450.324 519.572 450.46 519.489 450.596 519.406C450.685 519.351 450.774 519.297 450.862 519.243L471.801 553.325ZM272.102 579.695C271.8 579.605 271.499 579.515 271.198 579.425L282.718 541.12C282.971 541.196 283.223 541.271 283.476 541.346L272.102 579.695ZM462.851 558.568C462.576 558.721 462.301 558.874 462.026 559.026L442.67 524.021C442.9 523.894 443.131 523.766 443.361 523.637L462.851 558.568ZM281.54 582.292C281.424 582.262 281.308 582.233 281.192 582.203L291.095 543.449C291.35 543.514 291.606 543.578 291.861 543.643L282.106 582.435C281.917 582.387 281.728 582.34 281.54 582.292ZM453.688 563.431C453.408 563.572 453.127 563.713 452.846 563.854L434.975 528.068C435.21 527.95 435.446 527.832 435.681 527.713L453.688 563.431ZM292.216 584.753C291.908 584.689 291.601 584.625 291.293 584.56L299.562 545.424C299.762 545.466 299.963 545.508 300.164 545.55L300.335 545.586L292.216 584.753ZM444.33 567.905C444.044 568.035 443.757 568.164 443.47 568.292L427.117 531.788C427.357 531.68 427.598 531.572 427.837 531.463L444.33 567.905ZM302.415 586.645C302.105 586.594 301.795 586.543 301.485 586.491L308.104 547.042C308.364 547.086 308.623 547.129 308.883 547.171L302.415 586.645ZM434.346 572.162C434.203 572.219 434.06 572.276 433.918 572.333L419.11 535.175C419.354 535.078 419.599 534.98 419.843 534.881L434.793 571.983C434.644 572.043 434.495 572.103 434.346 572.162ZM312.154 588.042C312.019 588.026 311.884 588.009 311.748 587.992L316.706 548.3C316.968 548.333 317.229 548.365 317.491 548.397L312.684 588.107C312.507 588.086 312.331 588.064 312.154 588.042ZM425.093 575.656C424.945 575.709 424.797 575.762 424.648 575.814L424.203 575.97L410.966 538.224C411.091 538.18 411.215 538.137 411.34 538.093C411.464 538.049 411.588 538.005 411.712 537.961L425.093 575.656ZM323.005 589.137C322.692 589.113 322.379 589.087 322.065 589.062L325.354 549.197C325.617 549.219 325.879 549.24 326.142 549.26L323.005 589.137ZM415.247 578.921C414.947 579.013 414.646 579.105 414.345 579.197L402.703 540.929C402.955 540.852 403.207 540.775 403.459 540.697L415.247 578.921ZM333.361 589.734C333.046 589.722 332.732 589.71 332.418 589.697L334.032 549.73C334.182 549.736 334.332 549.742 334.482 549.748C334.595 549.752 334.709 549.756 334.822 549.76L333.361 589.734ZM405.273 581.769C404.969 581.849 404.665 581.928 404.361 582.007L394.334 543.284C394.589 543.218 394.844 543.151 395.099 543.084L405.273 581.769ZM343.732 589.895C343.417 589.897 343.103 589.898 342.789 589.898L342.725 549.898C342.988 549.898 343.252 549.897 343.515 549.896L343.732 589.895ZM395.188 584.196C394.881 584.263 394.574 584.33 394.267 584.396L385.874 545.286C386.082 545.242 386.29 545.197 386.498 545.151L386.646 545.119L395.188 584.196ZM354.1 589.621C353.786 589.636 353.472 589.651 353.158 589.664L351.417 549.702C351.552 549.696 351.687 549.69 351.821 549.684C351.95 549.678 352.078 549.672 352.207 549.666L354.1 589.621ZM384.421 586.301C384.308 586.32 384.195 586.34 384.082 586.359L377.337 546.932C377.504 546.903 377.671 546.874 377.839 546.845C377.931 546.829 378.023 546.813 378.116 546.797L385.011 586.198C384.814 586.233 384.618 586.267 384.421 586.301ZM364.449 588.913C364.136 588.941 363.822 588.969 363.509 588.995L360.093 549.142C360.356 549.119 360.618 549.096 360.881 549.073L364.449 588.913ZM374.758 587.771C374.446 587.813 374.135 587.853 373.823 587.893L368.738 548.218C369 548.184 369.261 548.15 369.522 548.116L374.758 587.771Z" fill="url(#paint0_linear)"/>
<path fill-rule="evenodd" clip-rule="evenodd" d="M133.669 210.212C133.753 210.079 133.838 209.947 133.922 209.814L167.654 231.311C167.584 231.423 167.513 231.534 167.442 231.645C167.371 231.756 167.301 231.868 167.23 231.979L133.417 210.611C133.501 210.478 133.585 210.345 133.669 210.212ZM139.141 201.96C139.32 201.702 139.499 201.444 139.679 201.186L172.48 224.079C172.329 224.295 172.179 224.511 172.029 224.728L139.141 201.96ZM128.061 219.493C128.217 219.221 128.374 218.948 128.532 218.676L163.136 238.741C163.004 238.968 162.872 239.197 162.741 239.425L128.061 219.493ZM145.222 193.557C145.412 193.307 145.602 193.056 145.792 192.806L177.604 217.055C177.445 217.265 177.285 217.475 177.126 217.685L145.222 193.557ZM123.082 228.593C123.227 228.314 123.372 228.035 123.519 227.757L158.934 246.352C158.811 246.585 158.689 246.818 158.568 247.052L123.082 228.593ZM151.651 185.417C151.851 185.175 152.051 184.933 152.252 184.691L183.019 210.253C182.85 210.456 182.682 210.659 182.515 210.862L151.651 185.417ZM118.489 237.893C118.622 237.609 118.756 237.324 118.89 237.04L155.055 254.132C154.942 254.371 154.83 254.609 154.718 254.847L118.489 237.893ZM158.416 177.554C158.626 177.32 158.836 177.086 159.047 176.853L188.714 203.684C188.537 203.879 188.361 204.075 188.185 204.271L158.416 177.554ZM114.291 247.378C114.412 247.088 114.533 246.798 114.656 246.509L151.505 262.069C151.403 262.312 151.301 262.554 151.199 262.798L114.291 247.378ZM165.505 169.981C165.724 169.756 165.944 169.532 166.165 169.308L194.679 197.36C194.495 197.547 194.31 197.736 194.126 197.924L165.505 169.981ZM110.494 257.031C110.603 256.736 110.712 256.442 110.822 256.147L148.292 270.147C148.2 270.394 148.108 270.641 148.017 270.888L110.494 257.031ZM172.905 162.713C173.133 162.498 173.363 162.282 173.592 162.068L200.905 191.291C200.713 191.471 200.521 191.651 200.329 191.832L172.905 162.713ZM107.105 266.835C107.202 266.535 107.299 266.236 107.396 265.938L145.421 278.354C145.339 278.604 145.257 278.855 145.177 279.106L107.105 266.835ZM180.603 155.762C180.841 155.556 181.079 155.351 181.317 155.146L207.38 185.489C207.181 185.66 206.981 185.832 206.782 186.005L180.603 155.762ZM104.131 276.771C104.215 276.468 104.299 276.166 104.384 275.863L142.896 286.673C142.825 286.927 142.754 287.181 142.684 287.435L104.131 276.771ZM188.586 149.139C188.832 148.944 189.078 148.748 189.325 148.554L214.093 179.963C213.886 180.126 213.68 180.29 213.473 180.454L188.586 149.139ZM101.576 286.824C101.647 286.518 101.719 286.212 101.791 285.906L140.722 295.092C140.662 295.348 140.602 295.605 140.542 295.861L101.576 286.824ZM196.84 142.857C197.094 142.672 197.348 142.488 197.603 142.303L221.032 174.724C220.818 174.878 220.605 175.033 220.392 175.188L196.84 142.857ZM99.4453 296.975C99.5034 296.666 99.5621 296.358 99.6214 296.049L138.903 303.594C138.854 303.853 138.805 304.111 138.756 304.37L99.4453 296.975ZM205.35 136.927C205.611 136.753 205.873 136.579 206.136 136.406L228.184 169.781C227.964 169.926 227.744 170.071 227.525 170.217L205.35 136.927ZM97.742 307.207C97.7871 306.896 97.8328 306.585 97.8791 306.274L137.443 312.165C137.404 312.425 137.366 312.686 137.328 312.947L97.742 307.207ZM214.101 131.359C214.37 131.196 214.639 131.033 214.908 130.871L235.537 165.141C235.311 165.277 235.086 165.414 234.861 165.55L214.101 131.359ZM96.4693 317.501C96.5013 317.188 96.5339 316.876 96.5671 316.563L136.343 320.789C136.315 321.051 136.288 321.313 136.261 321.575L96.4693 317.501ZM223.078 126.163C223.354 126.011 223.629 125.86 223.905 125.709L243.078 160.815C242.847 160.941 242.616 161.068 242.385 161.195L223.078 126.163ZM95.6295 327.84C95.6484 327.526 95.6679 327.212 95.6879 326.899L135.606 329.452C135.59 329.715 135.573 329.978 135.557 330.241L95.6295 327.84ZM232.266 121.348C232.547 121.208 232.829 121.069 233.111 120.93L250.794 156.809C250.558 156.925 250.322 157.042 250.086 157.159L232.266 121.348ZM95.2243 338.204C95.23 337.89 95.2363 337.576 95.2432 337.262L135.234 338.138C135.228 338.401 135.223 338.665 135.218 338.928L95.2243 338.204ZM241.647 116.923C241.934 116.795 242.222 116.667 242.509 116.54L258.671 153.13C258.43 153.236 258.19 153.343 257.949 153.45L241.647 116.923ZM95.2544 348.577C95.2468 348.263 95.2399 347.949 95.2336 347.635L135.226 346.832C135.231 347.095 135.237 347.359 135.243 347.622L95.2544 348.577ZM251.206 112.895C251.498 112.779 251.791 112.664 252.083 112.549L266.696 149.784C266.541 149.846 266.385 149.907 266.23 149.968C266.14 150.004 266.051 150.039 265.961 150.075L251.206 112.895ZM95.7195 358.939C95.6989 358.626 95.6788 358.312 95.6593 357.998L135.582 355.519C135.599 355.782 135.616 356.045 135.633 356.308L95.7195 358.939ZM260.925 109.272C261.074 109.221 261.222 109.169 261.371 109.117L274.482 146.908C274.357 146.951 274.232 146.994 274.108 147.038L260.925 109.272ZM96.5411 368.543C96.5337 368.474 96.5265 368.404 96.5192 368.335L136.303 364.183C136.317 364.315 136.331 364.446 136.345 364.577C136.359 364.708 136.373 364.839 136.387 364.97L96.619 369.273C96.602 369.117 96.5853 368.96 96.5686 368.804C96.5594 368.717 96.5502 368.63 96.5411 368.543ZM97.9507 379.56C97.9039 379.249 97.8576 378.938 97.8119 378.627L137.387 372.811C137.425 373.072 137.464 373.332 137.503 373.593L97.9507 379.56ZM99.7129 389.781C99.653 389.473 99.5937 389.164 99.535 388.855L138.831 381.384C138.88 381.643 138.93 381.902 138.98 382.16L99.7129 389.781ZM101.902 399.92C101.83 399.615 101.757 399.309 101.686 399.003L140.634 389.889C140.694 390.146 140.754 390.402 140.815 390.659L101.902 399.92ZM104.515 409.959C104.43 409.656 104.345 409.354 104.26 409.051L142.792 398.311C142.863 398.565 142.934 398.819 143.005 399.072L104.515 409.959ZM107.547 419.878C107.449 419.58 107.351 419.281 107.254 418.982L145.301 406.635C145.383 406.886 145.464 407.136 145.547 407.387L107.547 419.878ZM110.992 429.662C110.882 429.368 110.772 429.073 110.662 428.779L148.158 414.847C148.249 415.094 148.342 415.341 148.434 415.587L110.992 429.662ZM114.845 439.292C114.722 439.003 114.6 438.714 114.478 438.424L151.356 422.932C151.458 423.175 151.561 423.417 151.664 423.66L114.845 439.292ZM119.098 448.753C118.963 448.469 118.829 448.185 118.695 447.9L154.891 430.875C155.003 431.114 155.116 431.352 155.229 431.59L119.098 448.753ZM123.744 458.026C123.597 457.748 123.451 457.47 123.306 457.191L158.756 438.663C158.878 438.897 159 439.13 159.123 439.363L123.744 458.026ZM128.775 467.097C128.617 466.825 128.459 466.553 128.302 466.281L162.944 446.283C163.075 446.511 163.208 446.739 163.34 446.966L128.775 467.097ZM134.182 475.949C134.013 475.684 133.844 475.419 133.675 475.154L167.448 453.719C167.589 453.942 167.73 454.164 167.872 454.386L134.182 475.949ZM139.956 484.566C139.775 484.309 139.595 484.051 139.416 483.793L172.259 460.96C172.41 461.177 172.561 461.393 172.712 461.608L139.956 484.566ZM146.086 492.933C145.895 492.684 145.704 492.434 145.514 492.184L177.371 467.993C177.53 468.203 177.69 468.413 177.85 468.622L146.086 492.933ZM152.562 501.036C152.36 500.795 152.16 500.553 151.959 500.311L182.773 474.805C182.941 475.008 183.109 475.211 183.278 475.413L152.562 501.036ZM159.372 508.86C159.161 508.627 158.95 508.394 158.739 508.161L188.456 481.385C188.632 481.581 188.809 481.776 188.986 481.971L159.372 508.86ZM166.173 516.056C166.063 515.944 165.953 515.831 165.843 515.719L194.41 487.721C194.502 487.815 194.595 487.909 194.687 488.003C194.78 488.097 194.872 488.191 194.965 488.285L166.504 516.392C166.394 516.28 166.283 516.168 166.173 516.056ZM173.946 523.617C173.716 523.403 173.486 523.189 173.257 522.973L200.625 493.802C200.817 493.982 201.01 494.162 201.203 494.342L173.946 523.617ZM181.684 530.525C181.445 530.32 181.207 530.115 180.969 529.91L207.089 499.616C207.289 499.788 207.489 499.96 207.689 500.131L181.684 530.525ZM189.705 537.101C189.458 536.907 189.211 536.712 188.965 536.517L213.791 505.154C213.998 505.318 214.205 505.481 214.412 505.643L189.705 537.101ZM197.996 543.335C197.741 543.152 197.486 542.968 197.231 542.783L220.72 510.406C220.933 510.561 221.147 510.715 221.36 510.869L197.996 543.335ZM206.54 549.216C206.277 549.044 206.015 548.87 205.753 548.697L227.863 515.362C228.082 515.508 228.302 515.653 228.522 515.798L206.54 549.216ZM477.534 135.662C477.666 135.748 477.797 135.834 477.929 135.92L456.001 169.373C455.89 169.301 455.78 169.229 455.67 169.157L477.534 135.662ZM215.324 554.734C215.054 554.572 214.785 554.41 214.516 554.247L235.207 520.015C235.433 520.151 235.659 520.287 235.885 520.422L215.324 554.734ZM485.715 141.239C485.971 141.421 486.227 141.603 486.482 141.787L463.171 174.291C463.057 174.21 462.943 174.128 462.829 174.047C462.728 173.975 462.628 173.903 462.527 173.832L485.715 141.239ZM224.331 559.877C224.055 559.727 223.779 559.577 223.503 559.425L242.741 524.355C242.972 524.482 243.203 524.608 243.434 524.734L224.331 559.877ZM494.039 147.427C494.287 147.62 494.535 147.814 494.783 148.007L470.128 179.505C469.92 179.343 469.713 179.181 469.505 179.019L494.039 147.427ZM233.546 564.639C233.263 564.501 232.981 564.362 232.7 564.222L250.45 528.376C250.686 528.493 250.922 528.609 251.159 528.725L233.546 564.639ZM502.26 154.099C502.445 154.256 502.63 154.413 502.815 154.571L476.86 185.007C476.739 184.904 476.619 184.801 476.498 184.698C476.418 184.631 476.338 184.563 476.258 184.495L502.096 153.96L502.26 154.099ZM242.952 569.01C242.664 568.883 242.377 568.756 242.089 568.629L258.32 532.07C258.561 532.177 258.802 532.283 259.043 532.389L242.952 569.01ZM509.872 160.825C510.103 161.038 510.334 161.252 510.564 161.465L483.355 190.786C483.162 190.606 482.969 190.427 482.775 190.249L509.872 160.825ZM252.534 572.982C252.241 572.868 251.948 572.753 251.656 572.638L266.339 535.43C266.584 535.527 266.829 535.623 267.075 535.719L252.534 572.982ZM517.353 168.011C517.575 168.233 517.797 168.456 518.018 168.679L489.603 196.832C489.417 196.645 489.232 196.458 489.045 196.272L517.353 168.011ZM262.273 576.55C261.976 576.448 261.679 576.345 261.382 576.242L274.491 538.451C274.74 538.538 274.989 538.624 275.239 538.709L262.273 576.55ZM524.526 175.503C524.738 175.735 524.951 175.967 525.162 176.199L495.591 203.135C495.414 202.94 495.236 202.746 495.058 202.552L524.526 175.503ZM272.154 579.705C271.853 579.616 271.552 579.526 271.251 579.435L282.763 541.128C283.016 541.204 283.268 541.279 283.521 541.354L272.154 579.705ZM531.714 183.689C531.804 183.797 531.894 183.904 531.985 184.012L501.31 209.684C501.203 209.556 501.096 209.429 500.988 209.301C500.926 209.227 500.864 209.153 500.801 209.079L531.378 183.29C531.49 183.423 531.602 183.556 531.714 183.689ZM282.159 582.443C281.854 582.367 281.55 582.289 281.245 582.212L291.14 543.455C291.395 543.52 291.651 543.585 291.906 543.649L282.159 582.443ZM537.897 191.357C538.09 191.606 538.282 191.855 538.473 192.104L506.749 216.467C506.588 216.258 506.427 216.05 506.266 215.841L537.897 191.357ZM292.27 584.759C291.962 584.695 291.655 584.631 291.347 584.566L299.607 545.428C299.865 545.483 300.123 545.537 300.381 545.59L292.27 584.759ZM544.073 199.691C544.255 199.947 544.436 200.204 544.617 200.461L511.898 223.472C511.747 223.257 511.595 223.042 511.442 222.827L544.073 199.691ZM302.469 586.649C302.159 586.598 301.849 586.547 301.539 586.495L308.15 547.045C308.32 547.073 308.49 547.102 308.66 547.13C308.75 547.144 308.84 547.159 308.93 547.174L302.469 586.649ZM549.893 208.276C550.064 208.54 550.235 208.804 550.405 209.069L516.75 230.687C516.607 230.466 516.465 230.244 516.321 230.023L549.893 208.276ZM312.27 588.052C312.114 588.033 311.958 588.014 311.802 587.994L316.753 548.302C316.884 548.318 317.015 548.334 317.146 548.35C317.277 548.366 317.407 548.382 317.538 548.398L312.739 588.109C312.583 588.09 312.427 588.071 312.27 588.052ZM555.637 217.589C555.7 217.696 555.763 217.804 555.826 217.912L521.294 238.099C521.221 237.973 521.147 237.847 521.073 237.722C521.013 237.62 520.954 237.519 520.894 237.418L555.349 217.099C555.445 217.262 555.541 217.425 555.637 217.589ZM323.06 589.137C322.747 589.113 322.433 589.088 322.12 589.062L325.402 549.197C325.665 549.218 325.927 549.239 326.19 549.26L323.06 589.137ZM560.429 226.142C560.577 226.419 560.725 226.697 560.872 226.974L525.524 245.695C525.4 245.463 525.277 245.23 525.152 244.998L560.429 226.142ZM333.415 589.732C333.101 589.721 332.787 589.709 332.473 589.696L334.08 549.728C334.232 549.734 334.384 549.74 334.537 549.746C334.648 549.75 334.759 549.754 334.87 549.758L333.415 589.732ZM565.126 235.39C565.262 235.674 565.398 235.957 565.533 236.241L529.43 253.462C529.317 253.224 529.203 252.987 529.089 252.749L565.126 235.39ZM343.787 589.892C343.473 589.893 343.158 589.894 342.844 589.895L342.773 549.895C342.936 549.895 343.099 549.894 343.262 549.894C343.362 549.893 343.463 549.893 343.563 549.892L343.787 589.892ZM569.43 244.828C569.555 245.116 569.679 245.405 569.802 245.694L533.008 261.386C532.905 261.144 532.801 260.901 532.697 260.66L569.43 244.828ZM354.156 589.616C353.842 589.631 353.528 589.645 353.214 589.659L351.464 549.697C351.728 549.686 351.991 549.674 352.254 549.661L354.156 589.616ZM573.335 254.437C573.447 254.731 573.559 255.025 573.67 255.319L536.25 269.453C536.157 269.207 536.063 268.96 535.969 268.714L573.335 254.437ZM364.504 588.905C364.191 588.933 363.878 588.961 363.565 588.988L360.14 549.135C360.403 549.112 360.665 549.089 360.928 549.066L364.504 588.905ZM576.833 264.202C576.883 264.351 576.933 264.5 576.982 264.65C577.032 264.799 577.081 264.948 577.131 265.097L539.151 277.65C539.11 277.525 539.069 277.4 539.027 277.275C539 277.193 538.972 277.11 538.945 277.028L538.902 276.899L576.833 264.202ZM374.814 587.761C374.502 587.803 374.19 587.843 373.878 587.883L368.785 548.209C369.046 548.175 369.308 548.141 369.569 548.107L374.814 587.761ZM579.919 274.105C580.006 274.407 580.092 274.71 580.178 275.012L541.706 285.961C541.634 285.707 541.561 285.454 541.488 285.201L579.919 274.105ZM385.066 586.186C384.756 586.24 384.446 586.294 384.137 586.347L377.383 546.921C377.643 546.877 377.903 546.832 378.162 546.786L385.066 586.186ZM582.586 284.129C582.661 284.434 582.735 284.74 582.808 285.046L543.91 294.371C543.849 294.115 543.787 293.859 543.724 293.603L582.586 284.129ZM395.243 584.182C394.936 584.249 394.628 584.316 394.321 584.382L385.92 545.274C386.178 545.218 386.436 545.163 386.693 545.106L395.243 584.182ZM584.831 294.256C584.893 294.564 584.953 294.873 585.014 295.181L545.759 302.866C545.708 302.608 545.657 302.349 545.606 302.091L584.831 294.256ZM405.327 581.753C405.023 581.833 404.718 581.912 404.414 581.991L394.381 543.27C394.636 543.204 394.891 543.137 395.146 543.07L405.327 581.753ZM586.649 304.468C586.697 304.779 586.745 305.089 586.793 305.4L547.25 311.431C547.21 311.171 547.17 310.911 547.129 310.65L586.649 304.468ZM415.3 578.903C414.999 578.996 414.699 579.088 414.398 579.179L402.75 540.913C403.002 540.836 403.253 540.759 403.505 540.681L415.3 578.903ZM588.037 314.748C588.072 315.06 588.107 315.372 588.141 315.685L548.38 320.052C548.352 319.79 548.322 319.528 548.293 319.266L588.037 314.748ZM425.145 575.637C424.849 575.742 424.552 575.847 424.256 575.951L411.012 538.207C411.261 538.12 411.509 538.032 411.757 537.944L425.145 575.637ZM589.027 325.581C589.037 325.726 589.047 325.872 589.057 326.017L549.148 328.712C549.13 328.449 549.112 328.186 549.093 327.924L588.992 325.076C589.004 325.244 589.016 325.413 589.027 325.581ZM434.844 571.961C434.553 572.079 434.261 572.196 433.969 572.312L419.154 535.157C419.398 535.06 419.643 534.962 419.887 534.863L434.844 571.961ZM589.53 336.026C589.533 336.143 589.536 336.261 589.539 336.378L549.552 337.397C549.548 337.263 549.545 337.128 549.541 336.994C549.538 336.865 549.534 336.736 549.53 336.607L589.513 335.435C589.519 335.632 589.524 335.829 589.53 336.026ZM444.381 567.882C444.095 568.011 443.808 568.14 443.521 568.269L427.16 531.768C427.4 531.66 427.64 531.552 427.881 531.444L444.381 567.882ZM589.599 345.807C589.595 346.122 589.591 346.436 589.586 346.75L549.591 346.091C549.595 345.828 549.599 345.564 549.602 345.301L589.599 345.807ZM453.738 563.405C453.458 563.547 453.177 563.688 452.896 563.828L435.017 528.046C435.253 527.929 435.488 527.81 435.723 527.692L453.738 563.405ZM589.25 356.174C589.233 356.488 589.215 356.802 589.197 357.115L549.265 354.78C549.281 354.517 549.296 354.254 549.31 353.99L589.25 356.174ZM462.47 558.78C462.338 558.853 462.207 558.926 462.075 558.999L442.711 523.998C442.942 523.871 443.172 523.743 443.402 523.614L462.899 558.541C462.756 558.62 462.613 558.7 462.47 558.78ZM588.467 366.517C588.437 366.83 588.406 367.142 588.374 367.455L548.576 363.447C548.602 363.184 548.628 362.922 548.653 362.66L588.467 366.517ZM471.446 553.542C471.312 553.625 471.178 553.706 471.044 553.788L450.229 519.63C450.342 519.562 450.454 519.493 450.567 519.424L450.751 519.312L450.904 519.218L471.849 553.296C471.715 553.378 471.58 553.46 471.446 553.542ZM587.251 376.818C587.207 377.129 587.163 377.44 587.119 377.751L547.523 372.077C547.546 371.919 547.568 371.761 547.591 371.603C547.605 371.5 547.619 371.397 547.634 371.294L587.251 376.818ZM480.569 547.681C480.309 547.856 480.048 548.031 479.786 548.206L457.558 514.951C457.777 514.805 457.996 514.658 458.214 514.511L480.569 547.681ZM585.603 387.059C585.547 387.368 585.49 387.677 585.432 387.986L546.11 380.655C546.158 380.396 546.206 380.137 546.253 379.878L585.603 387.059ZM488.577 542.05C488.48 542.121 488.384 542.192 488.287 542.262L464.683 509.969C464.896 509.814 465.108 509.658 465.32 509.501L489.047 541.704C488.891 541.82 488.734 541.935 488.577 542.05ZM583.527 397.222C583.458 397.528 583.388 397.835 583.318 398.141L544.337 389.167C544.396 388.91 544.455 388.653 544.513 388.396L583.527 397.222ZM497.267 535.378C497.022 535.575 496.777 535.771 496.531 535.967L471.593 504.693C471.753 504.565 471.913 504.437 472.073 504.308L472.21 504.199L497.267 535.378ZM581.027 407.288C580.945 407.592 580.862 407.895 580.779 408.198L542.209 397.596C542.279 397.342 542.348 397.088 542.417 396.834L581.027 407.288ZM505.214 528.712C504.978 528.919 504.741 529.125 504.504 529.331L478.275 499.131C478.474 498.958 478.673 498.785 478.871 498.611L505.214 528.712ZM577.961 417.701C577.914 417.847 577.867 417.994 577.82 418.14L539.73 405.929C539.81 405.678 539.89 405.427 539.969 405.176L578.106 417.241C578.058 417.395 578.009 417.548 577.961 417.701ZM512.488 522.086C512.389 522.18 512.29 522.273 512.191 522.367L484.718 493.294C484.91 493.113 485.101 492.931 485.292 492.75L512.875 521.718C512.746 521.841 512.617 521.963 512.488 522.086ZM574.771 427.063C574.718 427.211 574.664 427.358 574.61 427.506L574.447 427.949L536.902 414.152C536.948 414.028 536.993 413.905 537.038 413.781C537.083 413.657 537.129 413.533 537.174 413.409L574.771 427.063ZM520.235 514.409C520.017 514.636 519.798 514.861 519.579 515.087L490.911 487.191C491.095 487.002 491.278 486.813 491.461 486.623L520.235 514.409ZM571.027 436.736C570.907 437.027 570.787 437.317 570.666 437.608L533.733 422.248C533.834 422.005 533.935 421.762 534.035 421.518L571.027 436.736ZM527.282 506.799C527.073 507.034 526.864 507.268 526.655 507.503L496.842 480.834C496.942 480.722 497.042 480.61 497.142 480.498C497.218 480.413 497.293 480.329 497.368 480.244L527.282 506.799ZM566.88 446.244C566.748 446.529 566.616 446.815 566.484 447.099L530.227 430.204C530.338 429.966 530.449 429.727 530.559 429.487L566.88 446.244ZM534.004 498.899C533.805 499.142 533.606 499.386 533.407 499.629L502.502 474.234C502.669 474.03 502.836 473.826 503.002 473.622L534.004 498.899ZM562.338 455.569C562.195 455.849 562.051 456.128 561.906 456.407L526.39 438.006C526.488 437.817 526.586 437.628 526.683 437.438L526.752 437.304L562.338 455.569ZM540.388 490.724C540.2 490.976 540.011 491.227 539.822 491.478L507.879 467.402C507.961 467.294 508.042 467.187 508.123 467.079C508.2 466.976 508.277 466.873 508.354 466.77L540.388 490.724ZM557.113 465.216C557.056 465.316 556.999 465.416 556.942 465.515L522.229 445.64C522.314 445.493 522.398 445.345 522.482 445.198C522.528 445.116 522.574 445.035 522.621 444.953L557.409 464.696C557.311 464.87 557.212 465.043 557.113 465.216ZM546.424 482.289C546.247 482.548 546.069 482.807 545.89 483.066L512.966 460.351C513.115 460.134 513.265 459.917 513.413 459.699L546.424 482.289ZM552.101 473.608C551.935 473.874 551.768 474.141 551.6 474.407L517.752 453.092C517.892 452.87 518.032 452.646 518.172 452.423L552.101 473.608Z" fill="url(#paint1_linear)"/>
<path opacity="0.5" fill-rule="evenodd" clip-rule="evenodd" d="M341.896 540.801C451.592 540.801 540.515 452.098 540.515 342.682C540.515 233.266 451.592 144.563 341.896 144.563C232.199 144.563 143.276 233.266 143.276 342.682C143.276 452.098 232.199 540.801 341.896 540.801ZM341.896 541.682C452.076 541.682 541.396 452.586 541.396 342.682C541.396 232.777 452.076 143.682 341.896 143.682C231.715 143.682 142.396 232.777 142.396 342.682C142.396 452.586 231.715 541.682 341.896 541.682Z" fill="#252545"/>
<g filter="url(#filter0_d)">
<path fill-rule="evenodd" clip-rule="evenodd" d="M326.363 177.028C350.866 174.651 375.591 177.728 398.763 186.039C421.936 194.349 442.981 207.687 460.388 225.094L456.146 229.337C439.365 212.556 419.077 199.698 396.738 191.686C374.399 183.675 350.563 180.708 326.942 183C303.321 185.292 280.5 192.784 260.118 204.94C239.736 217.096 222.297 233.614 209.055 253.307C195.812 273.001 187.094 295.382 183.525 318.844C179.957 342.307 181.628 366.268 188.417 389.008C195.206 411.748 206.945 432.703 222.792 450.369C238.639 468.035 258.201 481.973 280.072 491.184L277.744 496.713C255.056 487.159 234.764 472.701 218.326 454.376C201.887 436.051 189.71 414.313 182.667 390.725C175.625 367.136 173.892 342.28 177.594 317.942C181.295 293.604 190.339 270.388 204.075 249.959C217.812 229.531 235.902 212.396 257.045 199.787C278.188 187.177 301.86 179.405 326.363 177.028Z" fill="url(#paint2_linear)"/>
</g>
<path fill-rule="evenodd" clip-rule="evenodd" d="M389.357 503.057C348.425 515.049 304.454 510.903 266.486 491.471L269.219 486.13C305.822 504.863 348.211 508.86 387.669 497.299C427.128 485.738 460.658 459.497 481.363 423.973L486.547 426.994C465.069 463.844 430.288 491.064 389.357 503.057Z" fill="#8424FF"/>
<g filter="url(#filter1_d)">
<path fill-rule="evenodd" clip-rule="evenodd" d="M508.203 326.123C512.524 368.512 500.439 410.945 474.434 444.697L469.681 441.034C494.75 408.498 506.399 367.593 502.234 326.731C498.069 285.869 478.406 248.156 447.288 221.347L451.204 216.802C483.485 244.612 503.882 283.734 508.203 326.123Z" fill="url(#paint3_linear)"/>
</g>
<path d="M459.395 219.682C459.395 224.652 455.366 228.682 450.395 228.682C445.424 228.682 441.395 224.652 441.395 219.682C441.395 214.711 445.424 210.682 450.395 210.682C455.366 210.682 459.395 214.711 459.395 219.682Z" fill="#05050F"/>
<path fill-rule="evenodd" clip-rule="evenodd" d="M450.395 224.682C453.156 224.682 455.395 222.443 455.395 219.682C455.395 216.92 453.156 214.682 450.395 214.682C447.634 214.682 445.395 216.92 445.395 219.682C445.395 222.443 447.634 224.682 450.395 224.682ZM450.395 228.682C455.366 228.682 459.395 224.652 459.395 219.682C459.395 214.711 455.366 210.682 450.395 210.682C445.424 210.682 441.395 214.711 441.395 219.682C441.395 224.652 445.424 228.682 450.395 228.682Z" fill="#00F1E7"/>
<path d="M481.395 442.682C481.395 447.652 477.366 451.682 472.395 451.682C467.424 451.682 463.395 447.652 463.395 442.682C463.395 437.711 467.424 433.682 472.395 433.682C477.366 433.682 481.395 437.711 481.395 442.682Z" fill="#05050F"/>
<path fill-rule="evenodd" clip-rule="evenodd" d="M472.395 447.682C475.156 447.682 477.395 445.443 477.395 442.682C477.395 439.92 475.156 437.682 472.395 437.682C469.634 437.682 467.395 439.92 467.395 442.682C467.395 445.443 469.634 447.682 472.395 447.682ZM472.395 451.682C477.366 451.682 481.395 447.652 481.395 442.682C481.395 437.711 477.366 433.682 472.395 433.682C467.424 433.682 463.395 437.711 463.395 442.682C463.395 447.652 467.424 451.682 472.395 451.682Z" fill="#FFB424"/>
<path d="M277.395 488.682C277.395 493.652 273.366 497.682 268.395 497.682C263.424 497.682 259.395 493.652 259.395 488.682C259.395 483.711 263.424 479.682 268.395 479.682C273.366 479.682 277.395 483.711 277.395 488.682Z" fill="#05050F"/>
<path fill-rule="evenodd" clip-rule="evenodd" d="M268.395 493.682C271.156 493.682 273.395 491.443 273.395 488.682C273.395 485.92 271.156 483.682 268.395 483.682C265.634 483.682 263.395 485.92 263.395 488.682C263.395 491.443 265.634 493.682 268.395 493.682ZM268.395 497.682C273.366 497.682 277.395 493.652 277.395 488.682C277.395 483.711 273.366 479.682 268.395 479.682C263.424 479.682 259.395 483.711 259.395 488.682C259.395 493.652 263.424 497.682 268.395 497.682Z" fill="#8424FF"/>
<path d="M469.981 342.975C469.981 413.277 412.99 470.268 342.688 470.268C272.387 470.268 215.396 413.277 215.396 342.975C215.396 272.673 272.387 215.682 342.688 215.682C412.99 215.682 469.981 272.673 469.981 342.975Z" fill="#0D0D1E"/>
<path d="M326.333 284.333H359.667V287.667H326.333V284.333ZM326.333 261L334.667 266.833L343 256L351.333 266.833L359.667 261V281H326.333V261ZM329.667 267.402V277.667H356.333V267.402L350.633 271.392L343 261.467L335.367 271.392L329.667 267.4V267.402Z" fill="#5A5A89"/>
<defs>
<filter id="filter0_d" x="158.079" y="158.63" width="319.927" height="355.701" filterUnits="userSpaceOnUse" color-interpolation-filters="sRGB">
<feFlood flood-opacity="0" result="BackgroundImageFix"/>
<feColorMatrix in="SourceAlpha" type="matrix" values="0 0 0 0 0 0 0 0 0 0 0 0 0 0 0 0 0 0 127 0"/>
<feOffset/>
<feGaussianBlur stdDeviation="8.8092"/>
<feColorMatrix type="matrix" values="0 0 0 0 0 0 0 0 0 0.945098 0 0 0 0 0.905882 0 0 0 0.42 0"/>
<feBlend mode="normal" in2="BackgroundImageFix" result="effect1_dropShadow"/>
<feBlend mode="normal" in="SourceGraphic" in2="effect1_dropShadow" result="shape"/>
</filter>
<filter id="filter1_d" x="390.515" y="198.632" width="159.625" height="267.02" filterUnits="userSpaceOnUse" color-interpolation-filters="sRGB">
<feFlood flood-opacity="0" result="BackgroundImageFix"/>
<feColorMatrix in="SourceAlpha" type="matrix" values="0 0 0 0 0 0 0 0 0 0 0 0 0 0 0 0 0 0 127 0"/>
<feOffset/>
<feGaussianBlur stdDeviation="8.8092"/>
<feColorMatrix type="matrix" values="0 0 0 0 1 0 0 0 0 0.501961 0 0 0 0 0.141176 0 0 0 0.44 0"/>
<feBlend mode="normal" in2="BackgroundImageFix" result="effect1_dropShadow"/>
<feBlend mode="normal" in="SourceGraphic" in2="effect1_dropShadow" result="shape"/>
</filter>
<linearGradient id="paint0_linear" x1="318.307" y1="126.803" x2="414.63" y2="600.053" gradientUnits="userSpaceOnUse">
<stop stop-color="#00E0FF"/>
<stop offset="1" stop-color="#096BFF"/>
</linearGradient>
<linearGradient id="paint1_linear" x1="160.507" y1="223.944" x2="586.94" y2="450.655" gradientUnits="userSpaceOnUse">
<stop stop-color="#00E0FF"/>
<stop offset="1" stop-color="#096BFF"/>
</linearGradient>
<linearGradient id="paint2_linear" x1="320.883" y1="274.745" x2="342.466" y2="503.785" gradientUnits="userSpaceOnUse">
<stop stop-color="#00F1E7"/>
<stop offset="1" stop-color="#007DF1"/>
</linearGradient>
<linearGradient id="paint3_linear" x1="500.368" y1="372.311" x2="482.532" y2="283.995" gradientUnits="userSpaceOnUse">
<stop stop-color="#FFB524"/>
<stop offset="1" stop-color="#FF5924"/>
</linearGradient>
</defs>
</svg>
