<svg width="774" height="694" viewBox="0 0 774 694" fill="none" xmlns="http://www.w3.org/2000/svg">
<path d="M671.258 282.863C676.128 439.083 553.435 569.674 397.214 574.544C240.994 579.415 110.403 456.721 105.533 300.5C100.662 144.28 223.356 13.6896 379.576 8.81902C535.797 3.94846 666.387 126.642 671.258 282.863Z" fill="black"/>
<path fill-rule="evenodd" clip-rule="evenodd" d="M357.831 46.3605C357.987 46.3411 358.143 46.3218 358.299 46.3026L363.169 86.0051C363.038 86.0212 362.907 86.0374 362.776 86.0537C362.645 86.07 362.515 86.0864 362.384 86.1029L357.363 46.4193C357.519 46.3996 357.675 46.38 357.831 46.3605ZM367.679 45.3333C367.992 45.307 368.305 45.2812 368.619 45.2561L371.819 85.1279C371.557 85.1489 371.294 85.1705 371.031 85.1926L367.679 45.3333ZM347.102 47.9367C347.412 47.8842 347.722 47.8323 348.032 47.781L354.562 87.2444C354.302 87.2874 354.043 87.3309 353.783 87.3749L347.102 47.9367ZM378.031 44.681C378.345 44.6678 378.659 44.6552 378.973 44.6433L380.498 84.6142C380.235 84.6242 379.972 84.6348 379.708 84.6458L378.031 44.681ZM336.914 49.8832C337.221 49.8178 337.529 49.7529 337.837 49.6887L346.016 88.8434C345.759 88.8973 345.501 88.9516 345.243 89.0065L336.914 49.8832ZM388.401 44.4636C388.716 44.4636 389.03 44.4642 389.344 44.4654L389.191 84.4651C388.927 84.4641 388.664 84.4636 388.401 84.4636L388.401 44.4636ZM326.816 52.2555C327.121 52.1773 327.425 52.0996 327.73 52.0224L337.545 90.7994C337.29 90.8641 337.035 90.9292 336.78 90.9948L326.816 52.2555ZM398.772 44.6815C399.086 44.6947 399.4 44.7085 399.714 44.7229L397.882 84.6809C397.619 84.6688 397.356 84.6573 397.093 84.6462L398.772 44.6815ZM316.827 55.0494C317.128 54.9585 317.429 54.868 317.73 54.7782L329.164 93.1092C328.911 93.1845 328.659 93.2603 328.407 93.3366L316.827 55.0494ZM409.124 45.3343C409.437 45.3606 409.75 45.3876 410.063 45.4152L406.557 85.2612C406.295 85.2381 406.032 85.2155 405.769 85.1934L409.124 45.3343ZM306.964 58.26C307.26 58.1564 307.557 58.0535 307.854 57.9511L320.886 95.7687C320.637 95.8545 320.388 95.9408 320.14 96.0276L306.964 58.26ZM419.439 46.4208C419.751 46.4603 420.063 46.5003 420.375 46.541L415.2 86.2049C414.939 86.1708 414.677 86.1372 414.416 86.1041L419.439 46.4208ZM297.244 61.8814C297.536 61.7655 297.828 61.6502 298.121 61.5354L312.728 98.773C312.482 98.8692 312.237 98.9659 311.992 99.0631L297.244 61.8814ZM429.7 47.939C430.01 47.9915 430.32 48.0446 430.63 48.0984L423.796 87.5102C423.536 87.4652 423.276 87.4207 423.017 87.3767L429.7 47.939ZM287.684 65.9073C287.972 65.7793 288.259 65.6518 288.546 65.5248L304.702 102.117C304.461 102.223 304.22 102.33 303.98 102.438L287.684 65.9073ZM439.888 49.8862C440.196 49.9517 440.503 50.0178 440.81 50.0844L432.329 89.175C432.072 89.1192 431.814 89.0638 431.556 89.0089L439.888 49.8862ZM278.303 70.3306C278.584 70.1906 278.866 70.0512 279.148 69.9123L296.824 105.795C296.588 105.911 296.351 106.028 296.116 106.145L278.303 70.3306ZM449.985 52.259C450.29 52.3373 450.594 52.4162 450.898 52.4957L440.785 91.1962C440.53 91.1296 440.275 91.0635 440.02 90.9978L449.985 52.259ZM269.114 75.1434C269.39 74.9918 269.665 74.8407 269.941 74.69L289.107 109.8C288.876 109.926 288.645 110.052 288.414 110.18L269.114 75.1434ZM459.974 55.0532C460.275 55.1442 460.576 55.2358 460.876 55.328L449.149 93.5703C448.897 93.493 448.645 93.4163 448.393 93.34L459.974 55.0532ZM260.136 80.3375C260.405 80.1744 260.674 80.0118 260.943 79.8498L281.565 114.125C281.339 114.26 281.113 114.397 280.888 114.533L260.136 80.3375ZM469.837 58.264C470.134 58.3676 470.431 58.4717 470.727 58.5764L457.406 96.2931C457.158 96.2053 456.909 96.1181 456.66 96.0313L469.837 58.264ZM251.383 85.9035C251.645 85.7293 251.907 85.5556 252.169 85.3825L274.21 118.762C273.991 118.907 273.771 119.053 273.552 119.199L251.383 85.9035ZM479.557 61.8858C479.849 62.0017 480.141 62.1181 480.433 62.2352L465.541 99.3598C465.297 99.2617 465.052 99.1641 464.807 99.067L479.557 61.8858ZM242.872 91.832C243.126 91.647 243.381 91.4624 243.635 91.2784L267.057 123.704C266.844 123.858 266.631 124.013 266.418 124.168L242.872 91.832ZM489.117 65.9122C489.404 66.0402 489.69 66.1688 489.977 66.298L473.541 102.765C473.301 102.657 473.06 102.549 472.82 102.442L489.117 65.9122ZM234.617 98.1124C234.863 97.9169 235.109 97.7218 235.356 97.5273L260.118 128.941C259.911 129.105 259.705 129.268 259.498 129.432L234.617 98.1124ZM498.499 70.3362C498.78 70.4761 499.061 70.6167 499.342 70.7577L481.39 106.503C481.155 106.385 480.919 106.267 480.683 106.15L498.499 70.3362ZM226.632 104.734C226.87 104.528 227.108 104.323 227.346 104.118L253.404 134.466C253.205 134.637 253.005 134.809 252.806 134.982L226.632 104.734ZM507.687 75.1498C507.962 75.3014 508.237 75.4536 508.512 75.6064L489.076 110.567C488.93 110.486 488.784 110.405 488.638 110.324C488.553 110.278 488.469 110.231 488.385 110.184L507.687 75.1498ZM218.933 111.684C219.161 111.468 219.391 111.253 219.62 111.039L246.929 140.267C246.736 140.446 246.544 140.627 246.352 140.807L218.933 111.684ZM516.664 80.3443C516.799 80.4259 516.933 80.5077 517.068 80.5895L496.248 114.744C496.136 114.676 496.023 114.607 495.91 114.539L516.664 80.3443ZM212.045 118.427C212.094 118.377 212.143 118.327 212.192 118.277L240.701 146.334C240.609 146.428 240.517 146.522 240.424 146.617C240.332 146.711 240.24 146.805 240.148 146.899L211.531 118.951C211.641 118.839 211.751 118.726 211.861 118.614C211.922 118.552 211.983 118.489 212.045 118.427ZM204.441 126.522C204.651 126.288 204.862 126.055 205.072 125.822L234.734 152.658C234.557 152.854 234.381 153.049 234.205 153.245L204.441 126.522ZM197.675 134.384C197.875 134.141 198.075 133.899 198.276 133.658L229.037 159.226C228.869 159.429 228.701 159.632 228.533 159.835L197.675 134.384ZM191.244 142.523C191.434 142.272 191.624 142.022 191.815 141.772L223.621 166.027C223.461 166.237 223.302 166.447 223.143 166.657L191.244 142.523ZM185.161 150.924C185.34 150.666 185.519 150.408 185.699 150.15L218.495 173.05C218.345 173.266 218.194 173.482 218.044 173.699L185.161 150.924ZM179.435 159.573C179.603 159.308 179.772 159.042 179.941 158.777L213.669 180.281C213.527 180.503 213.386 180.726 213.245 180.948L179.435 159.573ZM174.078 168.455C174.234 168.183 174.391 167.911 174.549 167.639L209.15 187.708C209.018 187.936 208.886 188.165 208.754 188.393L174.078 168.455ZM169.097 177.554C169.242 177.275 169.388 176.996 169.534 176.718L204.946 195.319C204.824 195.552 204.702 195.786 204.58 196.02L169.097 177.554ZM164.503 186.853C164.636 186.569 164.77 186.284 164.904 186L201.065 203.099C200.953 203.338 200.841 203.576 200.729 203.815L164.503 186.853ZM160.303 196.337C160.424 196.047 160.546 195.757 160.668 195.468L197.514 211.035C197.412 211.278 197.31 211.521 197.208 211.764L160.303 196.337ZM156.504 205.989C156.613 205.694 156.722 205.399 156.833 205.105L194.299 219.114C194.207 219.36 194.115 219.607 194.024 219.854L156.504 205.989ZM153.113 215.792C153.21 215.492 153.307 215.193 153.405 214.895L191.426 227.319C191.344 227.57 191.263 227.82 191.182 228.071L153.113 215.792ZM150.137 225.728C150.221 225.425 150.305 225.122 150.39 224.82L188.899 235.638C188.828 235.892 188.757 236.146 188.687 236.399L150.137 225.728ZM147.58 235.781C147.651 235.474 147.723 235.168 147.795 234.863L186.724 244.056C186.664 244.312 186.604 244.569 186.544 244.825L147.58 235.781ZM145.447 245.932C145.505 245.623 145.564 245.314 145.623 245.005L184.904 252.557C184.854 252.816 184.805 253.075 184.756 253.333L145.447 245.932ZM143.742 256.163C143.787 255.852 143.833 255.541 143.879 255.23L183.442 261.127C183.403 261.388 183.365 261.649 183.327 261.909L143.742 256.163ZM142.516 265.988C142.532 265.832 142.549 265.675 142.566 265.519L182.341 269.752C182.327 269.883 182.313 270.014 182.299 270.145C182.286 270.277 182.272 270.408 182.259 270.539L142.467 266.458C142.484 266.301 142.5 266.145 142.516 265.988ZM141.626 276.796C141.645 276.482 141.664 276.168 141.684 275.854L181.602 278.416C181.585 278.679 181.569 278.942 181.553 279.205L141.626 276.796ZM141.218 287.16C141.224 286.846 141.23 286.532 141.237 286.217L181.228 287.102C181.222 287.365 181.216 287.629 181.212 287.892L141.218 287.16ZM141.246 297.533C141.239 297.219 141.232 296.904 141.226 296.59L181.218 295.796C181.223 296.059 181.229 296.323 181.235 296.586L141.246 297.533ZM141.709 307.895C141.689 307.582 141.669 307.268 141.649 306.954L181.573 304.483C181.589 304.746 181.606 305.009 181.623 305.272L141.709 307.895ZM142.607 318.229C142.573 317.917 142.54 317.604 142.507 317.291L182.292 313.147C182.319 313.409 182.347 313.671 182.375 313.933L142.607 318.229ZM634.087 264.267C634.105 264.424 634.122 264.58 634.139 264.736L594.378 269.096C594.363 268.965 594.349 268.834 594.334 268.703L634.087 264.267ZM143.937 328.516C143.89 328.205 143.844 327.894 143.798 327.583L183.374 321.774C183.412 322.034 183.451 322.295 183.49 322.556L143.937 328.516ZM634.988 274.128C635.011 274.441 635.032 274.755 635.053 275.068L595.144 277.757C595.134 277.617 595.125 277.477 595.115 277.338C595.107 277.215 595.098 277.091 595.089 276.968L634.988 274.128ZM145.697 338.738C145.637 338.429 145.578 338.121 145.519 337.812L184.817 330.348C184.866 330.606 184.916 330.865 184.966 331.124L145.697 338.738ZM635.508 284.487C635.517 284.801 635.525 285.116 635.533 285.43L595.546 286.442C595.539 286.178 595.532 285.915 595.525 285.652L635.508 284.487ZM147.885 348.877C147.812 348.571 147.74 348.265 147.668 347.959L186.618 338.853C186.678 339.11 186.738 339.366 186.799 339.623L147.885 348.877ZM635.589 295.074C635.586 295.317 635.582 295.56 635.578 295.802L595.584 295.136C595.586 294.977 595.589 294.819 595.591 294.66C595.593 294.555 595.594 294.45 595.595 294.345L635.592 294.86L635.589 295.074ZM150.495 358.915C150.41 358.613 150.325 358.31 150.241 358.007L188.774 347.276C188.845 347.53 188.916 347.784 188.988 348.037L150.495 358.915ZM635.241 305.226C635.224 305.54 635.206 305.854 635.188 306.168L595.256 303.824C595.272 303.561 595.287 303.298 595.301 303.035L635.241 305.226ZM153.525 368.835C153.427 368.537 153.329 368.238 153.232 367.939L191.282 355.601C191.363 355.852 191.445 356.102 191.527 356.352L153.525 368.835ZM634.456 315.569C634.425 315.882 634.394 316.195 634.363 316.508L594.565 312.49C594.591 312.228 594.617 311.966 594.643 311.704L634.456 315.569ZM156.968 378.62C156.858 378.326 156.748 378.031 156.638 377.737L194.137 363.813C194.228 364.06 194.321 364.307 194.413 364.554L156.968 378.62ZM633.237 325.87C633.193 326.181 633.149 326.492 633.105 326.804L593.51 321.12C593.548 320.859 593.585 320.599 593.621 320.338L633.237 325.87ZM160.819 388.251C160.696 387.962 160.574 387.672 160.452 387.383L197.333 371.898C197.435 372.141 197.538 372.384 197.641 372.626L160.819 388.251ZM631.493 336.623C631.467 336.761 631.442 336.899 631.416 337.038L592.095 329.699C592.125 329.535 592.156 329.371 592.186 329.207C592.204 329.112 592.221 329.017 592.238 328.921L631.587 336.11C631.556 336.281 631.524 336.452 631.493 336.623ZM165.07 397.713C164.935 397.429 164.801 397.145 164.667 396.86L200.866 379.842C200.978 380.081 201.091 380.319 201.204 380.557L165.07 397.713ZM629.509 346.272C629.44 346.579 629.37 346.885 629.299 347.192L590.321 338.21C590.38 337.953 590.439 337.696 590.497 337.439L629.509 346.272ZM169.714 406.988C169.568 406.71 169.422 406.431 169.276 406.153L204.73 387.631C204.852 387.864 204.974 388.097 205.097 388.33L169.714 406.988ZM627.007 356.338C626.925 356.642 626.842 356.945 626.759 357.248L588.191 346.64C588.261 346.386 588.331 346.131 588.399 345.877L627.007 356.338ZM174.744 416.059C174.586 415.788 174.428 415.516 174.271 415.244L208.916 395.25C209.002 395.4 209.089 395.549 209.175 395.698C209.221 395.777 209.267 395.855 209.313 395.934L174.744 416.059ZM624.085 366.291C623.99 366.59 623.895 366.89 623.799 367.189L585.71 354.972C585.791 354.722 585.871 354.47 585.95 354.219L624.085 366.291ZM179.896 424.515C179.811 424.382 179.727 424.249 179.643 424.116L213.419 402.688C213.49 402.8 213.56 402.911 213.631 403.022C213.702 403.133 213.773 403.244 213.844 403.355L180.15 424.912C180.065 424.78 179.98 424.647 179.896 424.515ZM620.553 376.646C620.51 376.763 620.467 376.88 620.424 376.997L582.882 363.194C582.932 363.057 582.982 362.92 583.032 362.783C583.073 362.672 583.113 362.562 583.153 362.451L620.748 376.112C620.683 376.29 620.618 376.468 620.553 376.646ZM185.922 433.53C185.741 433.273 185.561 433.015 185.382 432.757L218.23 409.931C218.38 410.148 218.531 410.364 218.682 410.58L185.922 433.53ZM617.002 385.784C616.882 386.075 616.762 386.365 616.641 386.656L579.711 371.289C579.812 371.046 579.913 370.802 580.013 370.559L617.002 385.784ZM192.05 441.899C191.859 441.649 191.668 441.399 191.478 441.149L223.34 416.965C223.432 417.087 223.524 417.208 223.616 417.329C223.684 417.417 223.751 417.506 223.819 417.594L192.05 441.899ZM612.853 395.291C612.721 395.577 612.589 395.862 612.456 396.147L576.203 379.244C576.314 379.005 576.425 378.766 576.536 378.527L612.853 395.291ZM198.524 450.003C198.323 449.762 198.122 449.52 197.922 449.278L228.74 423.779C228.844 423.904 228.949 424.03 229.053 424.156C229.117 424.233 229.181 424.31 229.245 424.387L198.524 450.003ZM608.309 404.616C608.166 404.895 608.022 405.175 607.877 405.454L572.365 387.045C572.486 386.811 572.607 386.577 572.727 386.342L608.309 404.616ZM205.333 457.829C205.121 457.596 204.911 457.363 204.7 457.129L234.422 430.359C234.598 430.555 234.775 430.751 234.952 430.946L205.333 457.829ZM603.378 413.741C603.223 414.015 603.067 414.288 602.911 414.56L568.202 394.678C568.333 394.449 568.464 394.22 568.594 393.991L603.378 413.741ZM212.463 465.361C212.243 465.138 212.022 464.914 211.802 464.689L240.375 436.696C240.559 436.884 240.744 437.072 240.929 437.26L212.463 465.361ZM598.069 422.652C597.986 422.785 597.902 422.918 597.818 423.052C597.735 423.185 597.651 423.318 597.567 423.451L563.723 402.131C563.793 402.019 563.863 401.907 563.934 401.796C563.98 401.723 564.025 401.649 564.071 401.576L564.143 401.46L598.069 422.652ZM219.904 472.588C219.674 472.374 219.444 472.16 219.215 471.944L246.588 442.777C246.78 442.958 246.973 443.138 247.165 443.317L219.904 472.588ZM592.39 431.332C592.213 431.592 592.035 431.851 591.856 432.109L558.935 409.388C559.085 409.172 559.234 408.954 559.383 408.737L592.39 431.332ZM227.641 479.497C227.402 479.292 227.164 479.088 226.926 478.882L253.051 448.593C253.251 448.765 253.451 448.937 253.651 449.108L227.641 479.497ZM586.353 439.767C586.164 440.018 585.976 440.27 585.786 440.521L553.848 416.439C554.007 416.228 554.165 416.018 554.323 415.807L586.353 439.767ZM235.661 486.075C235.414 485.881 235.167 485.686 234.92 485.491L259.753 454.132C259.959 454.296 260.166 454.459 260.373 454.622L235.661 486.075ZM579.967 447.94C579.768 448.184 579.569 448.427 579.369 448.67L548.469 423.269C548.637 423.066 548.803 422.862 548.97 422.658L579.967 447.94ZM243.949 492.31C243.694 492.127 243.44 491.943 243.185 491.758L266.68 459.386C266.894 459.54 267.107 459.695 267.321 459.849L243.949 492.31ZM573.243 455.839C573.034 456.074 572.825 456.309 572.616 456.543L542.809 429.868C542.984 429.672 543.16 429.475 543.335 429.278L573.243 455.839ZM252.492 498.193C252.23 498.02 251.967 497.847 251.706 497.673L273.822 464.344C274.042 464.489 274.262 464.635 274.482 464.78L252.492 498.193ZM566.194 463.448C565.976 463.675 565.757 463.9 565.538 464.125L536.876 436.224C537.06 436.035 537.243 435.846 537.426 435.656L566.194 463.448ZM261.275 503.712C261.005 503.551 260.736 503.388 260.467 503.226L281.166 468.998C281.391 469.134 281.617 469.27 281.843 469.406L261.275 503.712ZM558.465 471.104C558.36 471.204 558.254 471.304 558.148 471.404L530.682 442.325C530.874 442.144 531.065 441.962 531.256 441.781L558.832 470.756C558.71 470.872 558.588 470.988 558.465 471.104ZM270.281 508.858C270.005 508.708 269.729 508.557 269.453 508.406L288.698 473.34C288.929 473.467 289.16 473.593 289.392 473.719L270.281 508.858ZM550.726 478.135C550.637 478.213 550.548 478.29 550.46 478.367L524.238 448.161C524.339 448.073 524.44 447.985 524.542 447.896C524.639 447.811 524.736 447.726 524.833 447.641L551.171 477.747C551.022 477.877 550.874 478.006 550.726 478.135ZM279.495 513.622C279.213 513.483 278.931 513.344 278.649 513.205L296.406 477.362C296.642 477.479 296.878 477.595 297.115 477.711L279.495 513.622ZM543.222 484.411C542.977 484.608 542.732 484.805 542.486 485.001L517.554 453.721C517.76 453.557 517.966 453.393 518.171 453.228L543.222 484.411ZM288.901 517.994C288.613 517.868 288.326 517.741 288.039 517.613L304.276 481.057C304.516 481.164 304.757 481.271 304.999 481.377L288.901 517.994ZM535.002 490.736C534.748 490.923 534.495 491.109 534.241 491.294L510.643 458.997C510.856 458.841 511.068 458.686 511.28 458.529L535.002 490.736ZM298.025 521.789C297.884 521.734 297.744 521.679 297.604 521.624L312.294 484.419C312.539 484.516 312.784 484.612 313.029 484.708L298.482 521.969C298.329 521.909 298.177 521.849 298.025 521.789ZM526.523 496.711C526.262 496.887 526.001 497.062 525.74 497.236L503.517 463.978C503.736 463.831 503.955 463.685 504.173 463.537L526.523 496.711ZM307.775 525.384C307.627 525.333 307.478 525.281 307.33 525.23L320.446 487.441C320.57 487.485 320.695 487.528 320.82 487.571L321.024 487.641L321.194 487.699L308.222 525.538C308.073 525.487 307.924 525.435 307.775 525.384ZM517.801 502.325C517.533 502.489 517.265 502.653 516.996 502.817L496.188 468.655C496.324 468.572 496.46 468.489 496.596 468.406C496.685 468.352 496.774 468.297 496.862 468.243L517.801 502.325ZM318.102 528.695C317.8 528.605 317.499 528.516 317.198 528.425L328.718 490.12C328.971 490.196 329.223 490.271 329.476 490.346L318.102 528.695ZM508.851 507.568C508.576 507.721 508.301 507.874 508.026 508.026L488.67 473.021C488.9 472.894 489.131 472.766 489.361 472.637L508.851 507.568ZM327.54 531.292C327.424 531.263 327.308 531.233 327.192 531.203L337.095 492.449C337.35 492.514 337.606 492.579 337.861 492.643L328.106 531.435C327.917 531.388 327.728 531.34 327.54 531.292ZM499.688 512.431C499.408 512.572 499.127 512.713 498.846 512.854L480.975 477.068C481.21 476.95 481.446 476.832 481.681 476.713L499.688 512.431ZM338.216 533.753C337.908 533.689 337.601 533.625 337.293 533.56L345.562 494.424C345.762 494.466 345.963 494.508 346.164 494.55L346.335 494.586L338.216 533.753ZM490.33 516.905C490.044 517.035 489.757 517.164 489.47 517.292L473.117 480.788C473.357 480.68 473.598 480.572 473.837 480.464L490.33 516.905ZM348.415 535.645C348.105 535.594 347.795 535.543 347.485 535.491L354.104 496.042C354.364 496.086 354.623 496.129 354.883 496.171L348.415 535.645ZM480.346 521.162C480.203 521.22 480.06 521.277 479.918 521.333L465.11 484.175C465.354 484.078 465.599 483.98 465.843 483.881L480.793 520.983C480.644 521.043 480.495 521.103 480.346 521.162ZM358.154 537.043C358.019 537.026 357.884 537.009 357.748 536.992L362.706 497.301C362.968 497.333 363.229 497.365 363.491 497.397L358.684 537.107C358.507 537.086 358.331 537.064 358.154 537.043ZM471.093 524.657C470.945 524.709 470.797 524.762 470.648 524.814L470.203 524.971L456.966 487.224C457.091 487.181 457.215 487.137 457.34 487.093C457.464 487.049 457.588 487.005 457.712 486.961L471.093 524.657ZM369.005 538.137C368.692 538.113 368.379 538.087 368.065 538.062L371.354 498.197C371.617 498.219 371.879 498.24 372.142 498.261L369.005 538.137ZM461.247 527.921C460.947 528.013 460.646 528.105 460.345 528.197L448.703 489.929C448.955 489.852 449.207 489.775 449.459 489.697L461.247 527.921ZM379.361 538.734C379.046 538.722 378.732 538.71 378.418 538.697L380.032 498.73C380.182 498.736 380.332 498.742 380.482 498.748C380.595 498.752 380.709 498.756 380.822 498.76L379.361 538.734ZM451.273 530.769C450.969 530.849 450.665 530.928 450.361 531.007L440.334 492.284C440.589 492.218 440.844 492.152 441.099 492.085L451.273 530.769ZM389.732 538.895C389.417 538.897 389.103 538.898 388.789 538.898L388.725 498.899C388.988 498.898 389.252 498.897 389.515 498.896L389.732 538.895ZM441.188 533.196C440.881 533.263 440.574 533.33 440.267 533.396L431.874 494.286C432.082 494.242 432.29 494.197 432.498 494.151L432.646 494.119L441.188 533.196ZM400.1 538.622C399.786 538.636 399.472 538.651 399.158 538.664L397.417 498.702C397.552 498.696 397.687 498.69 397.821 498.684C397.95 498.678 398.078 498.672 398.207 498.666L400.1 538.622ZM430.421 535.301C430.308 535.32 430.195 535.34 430.082 535.359L423.337 495.932C423.504 495.903 423.671 495.874 423.839 495.845C423.931 495.829 424.023 495.813 424.116 495.797L431.011 535.198C430.814 535.233 430.618 535.267 430.421 535.301ZM410.449 537.913C410.136 537.941 409.822 537.969 409.509 537.996L406.093 498.142C406.356 498.119 406.618 498.096 406.881 498.073L410.449 537.913ZM420.758 536.772C420.446 536.813 420.135 536.853 419.823 536.893L414.738 497.218C415 497.184 415.261 497.15 415.522 497.116L420.758 536.772Z" fill="url(#paint0_linear)"/>
<path fill-rule="evenodd" clip-rule="evenodd" d="M451.062 631.019C450.96 630.477 451.318 629.954 451.861 629.852C522.676 616.563 587.533 581.378 637.283 529.259C687.033 477.14 719.166 410.718 729.15 339.362C729.226 338.815 729.732 338.433 730.279 338.51C730.826 338.586 731.207 339.092 731.131 339.639C721.089 411.41 688.769 478.218 638.73 530.64C588.69 583.062 523.457 618.451 452.23 631.818C451.687 631.92 451.164 631.562 451.062 631.019Z" fill="#16162B"/>
<path opacity="0.5" fill-rule="evenodd" clip-rule="evenodd" d="M387.896 489.801C497.592 489.801 586.515 401.098 586.515 291.682C586.515 182.266 497.592 93.5626 387.896 93.5626C278.199 93.5626 189.276 182.266 189.276 291.682C189.276 401.098 278.199 489.801 387.896 489.801ZM387.896 490.682C498.076 490.682 587.396 401.586 587.396 291.682C587.396 181.777 498.076 92.6816 387.896 92.6816C277.715 92.6816 188.396 181.777 188.396 291.682C188.396 401.586 277.715 490.682 387.896 490.682Z" fill="#252545"/>
<g filter="url(#filter0_d)">
<path fill-rule="evenodd" clip-rule="evenodd" d="M372.363 126.028C396.866 123.651 421.591 126.728 444.763 135.039C467.936 143.349 488.981 156.687 506.388 174.094L502.146 178.337C485.365 161.556 465.077 148.698 442.738 140.686C420.399 132.675 396.563 129.709 372.942 132C349.321 134.292 326.5 141.784 306.118 153.94C285.736 166.096 268.297 182.614 255.055 202.307C241.812 222.001 233.094 244.382 229.525 267.845C225.957 291.307 227.628 315.268 234.417 338.008C241.206 360.748 252.945 381.704 268.792 399.369C284.639 417.035 304.201 430.973 326.072 440.184L323.744 445.713C301.056 436.159 280.764 421.701 264.326 403.376C247.887 385.051 235.71 363.314 228.667 339.725C221.625 316.136 219.892 291.28 223.594 266.942C227.295 242.605 236.339 219.388 250.075 198.959C263.812 178.531 281.902 161.397 303.045 148.787C324.188 136.177 347.86 128.405 372.363 126.028Z" fill="url(#paint1_linear)"/>
</g>
<path fill-rule="evenodd" clip-rule="evenodd" d="M435.357 452.057C394.425 464.05 350.454 459.903 312.486 440.471L315.219 435.13C351.822 453.863 394.211 457.86 433.669 446.299C473.128 434.738 506.658 408.497 527.363 372.973L532.547 375.994C511.069 412.844 476.288 440.064 435.357 452.057Z" fill="#8424FF"/>
<g filter="url(#filter1_d)">
<path fill-rule="evenodd" clip-rule="evenodd" d="M554.203 275.123C558.524 317.512 546.439 359.945 520.434 393.697L515.681 390.034C540.75 357.498 552.399 316.593 548.234 275.731C544.069 234.869 524.406 197.156 493.288 170.347L497.204 165.802C529.485 193.612 549.882 232.734 554.203 275.123Z" fill="url(#paint2_linear)"/>
</g>
<path d="M505.395 168.682C505.395 173.652 501.366 177.682 496.395 177.682C491.424 177.682 487.395 173.652 487.395 168.682C487.395 163.711 491.424 159.682 496.395 159.682C501.366 159.682 505.395 163.711 505.395 168.682Z" fill="#05050F"/>
<path fill-rule="evenodd" clip-rule="evenodd" d="M496.395 173.682C499.156 173.682 501.395 171.443 501.395 168.682C501.395 165.92 499.156 163.682 496.395 163.682C493.634 163.682 491.395 165.92 491.395 168.682C491.395 171.443 493.634 173.682 496.395 173.682ZM496.395 177.682C501.366 177.682 505.395 173.652 505.395 168.682C505.395 163.711 501.366 159.682 496.395 159.682C491.424 159.682 487.395 163.711 487.395 168.682C487.395 173.652 491.424 177.682 496.395 177.682Z" fill="#00F1E7"/>
<path d="M527.395 391.682C527.395 396.652 523.366 400.682 518.395 400.682C513.424 400.682 509.395 396.652 509.395 391.682C509.395 386.711 513.424 382.682 518.395 382.682C523.366 382.682 527.395 386.711 527.395 391.682Z" fill="#05050F"/>
<path fill-rule="evenodd" clip-rule="evenodd" d="M518.395 396.682C521.156 396.682 523.395 394.443 523.395 391.682C523.395 388.92 521.156 386.682 518.395 386.682C515.634 386.682 513.395 388.92 513.395 391.682C513.395 394.443 515.634 396.682 518.395 396.682ZM518.395 400.682C523.366 400.682 527.395 396.652 527.395 391.682C527.395 386.711 523.366 382.682 518.395 382.682C513.424 382.682 509.395 386.711 509.395 391.682C509.395 396.652 513.424 400.682 518.395 400.682Z" fill="#FFB424"/>
<path d="M323.395 437.682C323.395 442.652 319.366 446.682 314.395 446.682C309.424 446.682 305.395 442.652 305.395 437.682C305.395 432.711 309.424 428.682 314.395 428.682C319.366 428.682 323.395 432.711 323.395 437.682Z" fill="#05050F"/>
<path fill-rule="evenodd" clip-rule="evenodd" d="M314.395 442.682C317.156 442.682 319.395 440.443 319.395 437.682C319.395 434.92 317.156 432.682 314.395 432.682C311.634 432.682 309.395 434.92 309.395 437.682C309.395 440.443 311.634 442.682 314.395 442.682ZM314.395 446.682C319.366 446.682 323.395 442.652 323.395 437.682C323.395 432.711 319.366 428.682 314.395 428.682C309.424 428.682 305.395 432.711 305.395 437.682C305.395 442.652 309.424 446.682 314.395 446.682Z" fill="#8424FF"/>
<path d="M515.981 291.975C515.981 362.277 458.99 419.268 388.688 419.268C318.387 419.268 261.396 362.277 261.396 291.975C261.396 221.673 318.387 164.682 388.688 164.682C458.99 164.682 515.981 221.673 515.981 291.975Z" fill="#0D0D1E"/>
<path d="M372.333 233.334H405.667V236.667H372.333V233.334ZM372.333 210L380.667 215.834L389 205L397.333 215.834L405.667 210V230H372.333V210ZM375.667 216.402V226.667H402.333V216.402L396.633 220.392L389 210.467L381.367 220.392L375.667 216.4V216.402Z" fill="#5A5A89"/>
<path d="M606.858 97.4052C621.779 120.448 615.195 151.224 592.152 166.145C569.109 181.066 538.333 174.481 523.412 151.438C508.491 128.395 515.076 97.6194 538.119 82.6986C561.162 67.7778 591.937 74.3621 606.858 97.4052Z" fill="#05050F"/>
<path fill-rule="evenodd" clip-rule="evenodd" d="M589.978 162.787C611.166 149.067 617.221 120.768 603.501 99.5793C589.781 78.3906 561.481 72.3361 540.293 86.0562C519.104 99.7762 513.05 128.075 526.77 149.264C540.49 170.453 568.789 176.507 589.978 162.787ZM592.152 166.145C615.195 151.224 621.779 120.448 606.858 97.4052C591.937 74.3621 561.162 67.7778 538.119 82.6986C515.076 97.6194 508.491 128.395 523.412 151.438C538.333 174.481 569.109 181.066 592.152 166.145Z" fill="url(#paint3_linear)"/>
<path d="M645.413 194.949C658.383 214.978 652.659 241.73 632.63 254.699C612.6 267.669 585.849 261.946 572.879 241.916C559.909 221.886 565.633 195.135 585.663 182.165C605.692 169.196 632.443 174.919 645.413 194.949Z" fill="#05050F"/>
<path fill-rule="evenodd" clip-rule="evenodd" d="M630.456 251.342C648.631 239.573 653.824 215.298 642.056 197.123C630.287 178.947 606.012 173.754 587.837 185.523C569.661 197.292 564.468 221.566 576.237 239.742C588.006 257.917 612.28 263.111 630.456 251.342ZM632.63 254.699C652.659 241.73 658.383 214.978 645.413 194.949C632.443 174.919 605.692 169.196 585.663 182.165C565.633 195.135 559.909 221.886 572.879 241.916C585.849 261.946 612.6 267.669 632.63 254.699Z" fill="#6B01F1"/>
<path d="M678.676 130.236C688.088 144.77 683.935 164.183 669.4 173.594C654.865 183.006 635.453 178.853 626.041 164.318C616.63 149.783 620.783 130.371 635.318 120.959C649.852 111.548 669.265 115.701 678.676 130.236Z" fill="#05050F"/>
<path fill-rule="evenodd" clip-rule="evenodd" d="M667.226 170.237C679.906 162.026 683.53 145.09 675.319 132.41C667.108 119.729 650.172 116.106 637.492 124.317C624.811 132.528 621.188 149.463 629.399 162.144C637.61 174.824 654.545 178.448 667.226 170.237ZM669.4 173.594C683.935 164.183 688.088 144.77 678.676 130.236C669.265 115.701 649.852 111.548 635.318 120.959C620.783 130.371 616.63 149.783 626.041 164.318C635.453 178.853 654.865 183.006 669.4 173.594Z" fill="#5A5A89"/>
<path d="M643.14 149.944L647.109 145.975L650.409 149.275L654.092 145.592L652 143.5H657.833V149.333L655.742 147.242L650.409 152.574L647.109 149.275L644.222 152.161C645.533 154.134 647.544 155.535 649.849 156.079C652.154 156.624 654.58 156.272 656.635 155.095C658.69 153.918 660.221 152.004 660.917 149.74C661.613 147.476 661.423 145.032 660.384 142.904C659.345 140.775 657.537 139.121 655.324 138.277C653.111 137.432 650.66 137.46 648.468 138.356C646.275 139.251 644.505 140.946 643.516 143.098C642.526 145.25 642.392 147.698 643.14 149.945V149.944ZM641.346 151.761L641.334 151.75L641.339 151.745C640.674 150.252 640.331 148.635 640.333 147C640.333 140.557 645.557 135.333 652 135.333C658.444 135.333 663.667 140.557 663.667 147C663.667 153.444 658.444 158.667 652 158.667C647.252 158.667 643.168 155.832 641.346 151.761V151.761Z" fill="#5A5A89"/>
<path fill-rule="evenodd" clip-rule="evenodd" d="M38 221H8C4.13401 221 1 224.134 1 228V258C1 261.866 4.13401 265 8 265H38C41.866 265 45 261.866 45 258V228C45 224.134 41.866 221 38 221ZM8 220C3.58172 220 0 223.582 0 228V258C0 262.419 3.58172 266 8 266H38C42.4183 266 46 262.419 46 258V228C46 223.582 42.4183 220 38 220H8Z" fill="#252547"/>
<path d="M23.0002 234C28.3922 234 32.8782 237.88 33.8192 243C32.8792 248.12 28.3922 252 23.0002 252C17.6082 252 13.1222 248.12 12.1812 243C13.1212 237.88 17.6082 234 23.0002 234ZM23.0002 250C25.0396 250 27.0185 249.307 28.613 248.035C30.2075 246.764 31.3231 244.989 31.7772 243C31.3214 241.014 30.2051 239.24 28.6108 237.97C27.0165 236.7 25.0385 236.009 23.0002 236.009C20.9618 236.009 18.9838 236.7 17.3895 237.97C15.7952 239.24 14.6789 241.014 14.2232 243C14.6772 244.989 15.7928 246.764 17.3873 248.035C18.9818 249.307 20.9607 250 23.0002 250V250ZM23.0002 247.5C21.8067 247.5 20.6621 247.026 19.8182 246.182C18.9743 245.338 18.5002 244.194 18.5002 243C18.5002 241.807 18.9743 240.662 19.8182 239.818C20.6621 238.974 21.8067 238.5 23.0002 238.5C24.1936 238.5 25.3382 238.974 26.1821 239.818C27.026 240.662 27.5002 241.807 27.5002 243C27.5002 244.194 27.026 245.338 26.1821 246.182C25.3382 247.026 24.1936 247.5 23.0002 247.5ZM23.0002 245.5C23.6632 245.5 24.2991 245.237 24.7679 244.768C25.2368 244.299 25.5002 243.663 25.5002 243C25.5002 242.337 25.2368 241.701 24.7679 241.232C24.2991 240.764 23.6632 240.5 23.0002 240.5C22.3371 240.5 21.7012 240.764 21.2324 241.232C20.7635 241.701 20.5002 242.337 20.5002 243C20.5002 243.663 20.7635 244.299 21.2324 244.768C21.7012 245.237 22.3371 245.5 23.0002 245.5Z" fill="#5A5A89"/>
<path fill-rule="evenodd" clip-rule="evenodd" d="M766 220H736C732.134 220 729 223.134 729 227V257C729 260.866 732.134 264 736 264H766C769.866 264 773 260.866 773 257V227C773 223.134 769.866 220 766 220ZM736 219C731.582 219 728 222.582 728 227V257C728 261.419 731.582 265 736 265H766C770.418 265 774 261.419 774 257V227C774 222.582 770.418 219 766 219H736Z" fill="#252547"/>
<path d="M743.873 233H758.127C758.285 233 758.44 233.038 758.581 233.109C758.722 233.181 758.843 233.285 758.936 233.412L762.759 238.668C762.827 238.762 762.86 238.876 762.854 238.991C762.847 239.107 762.8 239.216 762.722 239.301L751.367 251.602C751.277 251.699 751.152 251.757 751.02 251.762C750.887 251.768 750.758 251.72 750.661 251.63C750.654 251.624 746.861 247.515 739.278 239.301C739.2 239.216 739.153 239.107 739.146 238.991C739.14 238.876 739.173 238.762 739.241 238.668L743.064 233.412C743.157 233.285 743.278 233.181 743.419 233.109C743.56 233.038 743.715 233 743.873 233ZM744.383 235L741.583 238.85L751 249.05L760.417 238.85L757.617 235H744.383Z" fill="#5A5A89"/>
<path fill-rule="evenodd" clip-rule="evenodd" d="M401 591H371C367.134 591 364 594.134 364 598V628C364 631.866 367.134 635 371 635H401C404.866 635 408 631.866 408 628V598C408 594.134 404.866 591 401 591ZM371 590C366.582 590 363 593.582 363 598V628C363 632.419 366.582 636 371 636H401C405.418 636 409 632.419 409 628V598C409 593.582 405.418 590 401 590H371Z" fill="#252547"/>
<path d="M386 621C388.122 621 390.157 620.157 391.657 618.657C393.157 617.157 394 615.122 394 613C394 610.879 393.157 608.844 391.657 607.343C390.157 605.843 388.122 605 386 605C383.878 605 381.843 605.843 380.343 607.343C378.843 608.844 378 610.879 378 613C378 615.122 378.843 617.157 380.343 618.657C381.843 620.157 383.878 621 386 621V621ZM386 623C380.477 623 376 618.523 376 613C376 607.477 380.477 603 386 603C391.523 603 396 607.477 396 613C396 618.523 391.523 623 386 623ZM386 617C387.061 617 388.078 616.579 388.828 615.829C389.579 615.079 390 614.061 390 613C390 611.939 389.579 610.922 388.828 610.172C388.078 609.422 387.061 609 386 609C384.939 609 383.922 609.422 383.172 610.172C382.421 610.922 382 611.939 382 613C382 614.061 382.421 615.079 383.172 615.829C383.922 616.579 384.939 617 386 617V617ZM386 619C384.409 619 382.883 618.368 381.757 617.243C380.632 616.118 380 614.592 380 613C380 611.409 380.632 609.883 381.757 608.758C382.883 607.632 384.409 607 386 607C387.591 607 389.117 607.632 390.243 608.758C391.368 609.883 392 611.409 392 613C392 614.592 391.368 616.118 390.243 617.243C389.117 618.368 387.591 619 386 619ZM386 615C385.47 615 384.961 614.79 384.586 614.414C384.211 614.039 384 613.531 384 613C384 612.47 384.211 611.961 384.586 611.586C384.961 611.211 385.47 611 386 611C386.53 611 387.039 611.211 387.414 611.586C387.789 611.961 388 612.47 388 613C388 613.531 387.789 614.039 387.414 614.414C387.039 614.79 386.53 615 386 615Z" fill="#5A5A89"/>
<path fill-rule="evenodd" clip-rule="evenodd" d="M324.819 629.019C324.921 628.477 324.564 627.954 324.021 627.852C253.205 614.563 188.349 579.378 138.598 527.259C88.8483 475.14 56.7153 408.718 46.7317 337.362C46.6552 336.815 46.1498 336.433 45.6028 336.51C45.0558 336.586 44.6745 337.092 44.751 337.639C54.7926 409.41 87.1124 476.218 137.152 528.64C187.191 581.062 252.425 616.451 323.652 629.818C324.195 629.92 324.717 629.562 324.819 629.019Z" fill="#16162B"/>
<defs>
<filter id="filter0_d" x="204.079" y="107.63" width="319.927" height="355.701" filterUnits="userSpaceOnUse" color-interpolation-filters="sRGB">
<feFlood flood-opacity="0" result="BackgroundImageFix"/>
<feColorMatrix in="SourceAlpha" type="matrix" values="0 0 0 0 0 0 0 0 0 0 0 0 0 0 0 0 0 0 127 0"/>
<feOffset/>
<feGaussianBlur stdDeviation="8.8092"/>
<feColorMatrix type="matrix" values="0 0 0 0 0 0 0 0 0 0.945098 0 0 0 0 0.905882 0 0 0 0.42 0"/>
<feBlend mode="normal" in2="BackgroundImageFix" result="effect1_dropShadow"/>
<feBlend mode="normal" in="SourceGraphic" in2="effect1_dropShadow" result="shape"/>
</filter>
<filter id="filter1_d" x="436.515" y="147.632" width="159.625" height="267.02" filterUnits="userSpaceOnUse" color-interpolation-filters="sRGB">
<feFlood flood-opacity="0" result="BackgroundImageFix"/>
<feColorMatrix in="SourceAlpha" type="matrix" values="0 0 0 0 0 0 0 0 0 0 0 0 0 0 0 0 0 0 127 0"/>
<feOffset/>
<feGaussianBlur stdDeviation="8.8092"/>
<feColorMatrix type="matrix" values="0 0 0 0 1 0 0 0 0 0.501961 0 0 0 0 0.141176 0 0 0 0.44 0"/>
<feBlend mode="normal" in2="BackgroundImageFix" result="effect1_dropShadow"/>
<feBlend mode="normal" in="SourceGraphic" in2="effect1_dropShadow" result="shape"/>
</filter>
<linearGradient id="paint0_linear" x1="364.307" y1="75.8036" x2="460.63" y2="549.053" gradientUnits="userSpaceOnUse">
<stop stop-color="#00E0FF"/>
<stop offset="1" stop-color="#096BFF"/>
</linearGradient>
<linearGradient id="paint1_linear" x1="366.883" y1="223.746" x2="388.466" y2="452.785" gradientUnits="userSpaceOnUse">
<stop stop-color="#00F1E7"/>
<stop offset="1" stop-color="#007DF1"/>
</linearGradient>
<linearGradient id="paint2_linear" x1="546.368" y1="321.311" x2="528.532" y2="232.995" gradientUnits="userSpaceOnUse">
<stop stop-color="#FFB524"/>
<stop offset="1" stop-color="#FF5924"/>
</linearGradient>
<linearGradient id="paint3_linear" x1="538.119" y1="82.6986" x2="592.152" y2="166.145" gradientUnits="userSpaceOnUse">
<stop stop-color="#F17401"/>
<stop offset="1" stop-color="#FFB524"/>
</linearGradient>
</defs>
</svg>
