<svg width="64" height="64" viewBox="0 0 64 64" fill="none" xmlns="http://www.w3.org/2000/svg">
<path fill-rule="evenodd" clip-rule="evenodd" d="M6.66704 31.5348C6.66704 34.8779 7.3255 38.1882 8.60483 41.2768C9.88416 44.3654 11.7593 47.1717 14.1232 49.5356C16.4871 51.8995 19.2935 53.7746 22.382 55.054C25.4706 56.3333 28.7809 56.9918 32.124 56.9918C35.467 56.9918 38.7774 56.3333 41.8659 55.054C44.9545 53.7746 47.7609 51.8995 50.1248 49.5356C52.4887 47.1717 54.3638 44.3654 55.6431 41.2768C56.9225 38.1882 57.5809 34.8779 57.5809 31.5348C57.5809 28.1918 56.9225 24.8815 55.6431 21.7929C54.3638 18.7043 52.4887 15.8979 50.1248 13.534C47.7609 11.1701 44.9545 9.295 41.8659 8.01567C38.7774 6.73634 35.467 6.07788 32.124 6.07788C28.7809 6.07787 25.4706 6.73634 22.382 8.01567C19.2935 9.295 16.4871 11.1701 14.1232 13.534C11.7593 15.8979 9.88417 18.7043 8.60483 21.7929C7.3255 24.8814 6.66704 28.1918 6.66704 31.5348ZM4.079 43.1514C2.55348 39.4685 1.76831 35.5212 1.76831 31.5348C1.76831 27.5485 2.55348 23.6011 4.079 19.9182C5.60451 16.2353 7.8405 12.8889 10.6593 10.0701C13.4781 7.25133 16.8245 5.01535 20.5074 3.48983C24.1903 1.96432 28.1376 1.17914 32.124 1.17914C36.1104 1.17914 40.0577 1.96432 43.7406 3.48983C47.4235 5.01535 50.7699 7.25133 53.5887 10.0701C56.4075 12.8889 58.6435 16.2353 60.169 19.9182C61.6945 23.6011 62.4797 27.5485 62.4797 31.5348C62.4797 35.5212 61.6945 39.4685 60.169 43.1514C58.6435 46.8344 56.4075 50.1807 53.5887 52.9995C50.7699 55.8183 47.4235 58.0543 43.7406 59.5798C40.0577 61.1053 36.1104 61.8905 32.124 61.8905C28.1376 61.8905 24.1903 61.1053 20.5074 59.5798C16.8245 58.0543 13.4781 55.8183 10.6593 52.9995C7.8405 50.1807 5.60451 46.8344 4.079 43.1514Z" fill="#14142B"/>
<path fill-rule="evenodd" clip-rule="evenodd" d="M6.01924 29.2874C5.43112 35.2587 6.93166 41.2491 10.2652 46.2381C13.5987 51.2271 18.559 54.9059 24.3008 56.6476C30.0426 58.3894 36.2107 58.0864 41.7542 55.7902C47.2976 53.494 51.8734 49.3468 54.7019 44.0551C57.5304 38.7634 58.4365 32.6547 57.2659 26.7698C56.0953 20.8849 52.9205 15.5879 48.2823 11.7814C43.6441 7.97496 37.8295 5.89448 31.8293 5.89448C30.2016 5.89448 28.8822 4.57499 28.8822 2.94733C28.8822 1.31966 30.2016 0.000175816 31.8293 0.000175835C39.1932 0.000175923 46.3292 2.55349 52.0216 7.22508C57.7139 11.8967 61.6104 18.3975 63.047 25.6198C64.4836 32.8422 63.3715 40.3393 59.9002 46.8336C56.4289 53.328 50.8132 58.4178 44.0098 61.2358C37.2065 64.0539 29.6365 64.4257 22.5898 62.2881C15.543 60.1505 9.4554 55.6356 5.36425 49.5128C1.2731 43.39 -0.568468 36.038 0.153316 28.7096C0.875101 21.3812 4.11558 14.5298 9.32262 9.32275C10.4736 8.17181 12.3396 8.17181 13.4905 9.32275C14.6415 10.4737 14.6415 12.3397 13.4905 13.4907C9.24775 17.7334 6.60736 23.3161 6.01924 29.2874Z" fill="url(#paint0_linear)"/>
<path d="M49.512 31.5347C49.512 41.1379 41.727 48.9229 32.1238 48.9229C22.5206 48.9229 14.7356 41.1379 14.7356 31.5347C14.7356 21.9314 22.5206 14.1465 32.1238 14.1465C41.727 14.1465 49.512 21.9314 49.512 31.5347Z" fill="#05050F"/>
<path d="M40.2378 30.0532C40.6456 30.633 40.8782 31.3139 40.9091 32.0177C41.6064 32.2599 42.1941 32.736 42.5684 33.3621C42.9428 33.9882 43.0798 34.7239 42.9551 35.4395C42.8305 36.155 42.4523 36.8043 41.8873 37.2728C41.3222 37.7413 40.6067 37.9988 39.867 38H24.1843C23.0819 38.0015 22.0237 37.5742 21.2415 36.8119L27.8952 31.6435C28.1391 31.7714 28.4179 31.8439 28.7149 31.8439C28.9718 31.8443 29.2255 31.7887 29.4579 31.6811L32.6293 34.4042C32.5451 34.665 32.5259 34.9419 32.5733 35.2115C32.6207 35.4811 32.7334 35.7356 32.9018 35.9536C33.0703 36.1717 33.2896 36.3469 33.5413 36.4645C33.793 36.5821 34.0698 36.6388 34.3485 36.6297C34.6271 36.6205 34.8995 36.5459 35.1427 36.4121C35.3859 36.2783 35.5928 36.0892 35.746 35.8606C35.8993 35.6321 35.9945 35.3708 36.0235 35.0986C36.0525 34.8265 36.0146 34.5515 35.9129 34.2968L40.2378 30.0532V30.0532ZM39.2523 29.086L34.928 33.3296C34.725 33.2515 34.5089 33.2116 34.2909 33.2119C34.034 33.2116 33.7803 33.2672 33.5479 33.3747L30.3765 30.6517C30.4581 30.3989 30.4786 30.1309 30.4365 29.8689C30.3943 29.6069 30.2907 29.3581 30.1337 29.1423C29.9767 28.9264 29.7707 28.7493 29.5319 28.625C29.2932 28.5007 29.0283 28.4326 28.7581 28.4261C28.4879 28.4196 28.2199 28.4748 27.9752 28.5874C27.7305 28.7001 27.5159 28.867 27.3483 29.0751C27.1807 29.2831 27.0647 29.5266 27.0095 29.7862C26.9543 30.0458 26.9614 30.3145 27.0302 30.571L20.426 35.7004C20.1122 35.0713 19.9676 34.3739 20.0061 33.6746C20.0445 32.9752 20.2647 32.2972 20.6457 31.7049C21.0267 31.1127 21.5558 30.626 22.1826 30.2911C22.8094 29.9563 23.5132 29.7844 24.2268 29.7919C24.3865 28.5419 24.9808 27.3842 25.9094 26.5143C26.8379 25.6443 28.0439 25.1154 29.3237 25.0168C30.6035 24.9182 31.8788 25.2559 32.9343 25.9729C33.9899 26.6899 34.761 27.7424 35.1176 28.9526C35.7106 28.6055 36.3885 28.4227 37.079 28.4239C37.8854 28.4239 38.634 28.6688 39.2523 29.086V29.086Z" fill="white"/>
<defs>
<linearGradient id="paint0_linear" x1="15.9145" y1="0.000173873" x2="15.9676" y2="62.0717" gradientUnits="userSpaceOnUse">
<stop stop-color="#E323FF"/>
<stop offset="1" stop-color="#7517F8"/>
</linearGradient>
</defs>
</svg>
