<svg width="65" height="64" viewBox="0 0 65 64" fill="none" xmlns="http://www.w3.org/2000/svg">
<path fill-rule="evenodd" clip-rule="evenodd" d="M7.11418 31.5347C7.11418 34.8778 7.77265 38.1881 9.05198 41.2767C10.3313 44.3652 12.2065 47.1716 14.5703 49.5355C16.9342 51.8994 19.7406 53.7745 22.8292 55.0539C25.9178 56.3332 29.2281 56.9916 32.5711 56.9917C35.9142 56.9917 39.2245 56.3332 42.3131 55.0539C45.4017 53.7745 48.208 51.8994 50.5719 49.5355C52.9358 47.1716 54.811 44.3652 56.0903 41.2767C57.3696 38.1881 58.0281 34.8778 58.0281 31.5347C58.0281 28.1916 57.3696 24.8813 56.0903 21.7927C54.811 18.7042 52.9358 15.8978 50.5719 13.5339C48.208 11.17 45.4017 9.29488 42.3131 8.01555C39.2245 6.73622 35.9142 6.07775 32.5711 6.07775C29.2281 6.07775 25.9178 6.73622 22.8292 8.01555C19.7406 9.29488 16.9342 11.17 14.5704 13.5339C12.2065 15.8978 10.3313 18.7042 9.05198 21.7927C7.77265 24.8813 7.11418 28.1916 7.11418 31.5347ZM4.52614 43.1513C3.00062 39.4684 2.21545 35.5211 2.21545 31.5347C2.21545 27.5483 3.00063 23.601 4.52614 19.9181C6.05166 16.2352 8.28764 12.8888 11.1064 10.07C13.9252 7.25121 17.2716 5.01522 20.9545 3.48971C24.6374 1.96419 28.5848 1.17902 32.5711 1.17902C36.5575 1.17902 40.5048 1.96419 44.1877 3.48971C47.8707 5.01523 51.2171 7.25121 54.0358 10.07C56.8546 12.8888 59.0906 16.2352 60.6161 19.9181C62.1416 23.601 62.9268 27.5483 62.9268 31.5347C62.9268 35.5211 62.1416 39.4684 60.6161 43.1513C59.0906 46.8342 56.8546 50.1806 54.0358 52.9994C51.2171 55.8182 47.8707 58.0542 44.1877 59.5797C40.5048 61.1052 36.5575 61.8904 32.5711 61.8904C28.5848 61.8904 24.6374 61.1052 20.9545 59.5797C17.2716 58.0542 13.9252 55.8182 11.1064 52.9994C8.28764 50.1806 6.05166 46.8342 4.52614 43.1513Z" fill="#14142B"/>
<path fill-rule="evenodd" clip-rule="evenodd" d="M6.46626 29.2872C5.87814 35.2585 7.37868 41.249 10.7122 46.238C14.0457 51.227 19.006 54.9057 24.7478 56.6475C30.4896 58.3893 36.6578 58.0862 42.2012 55.7901C47.7447 53.4939 52.3204 49.3466 55.1489 44.055C57.9774 38.7633 58.8835 32.6545 57.7129 26.7696C56.5424 20.8848 53.3675 15.5878 48.7293 11.7813C44.0911 7.97484 38.2765 5.89436 32.2763 5.89436C30.6487 5.89436 29.3292 4.57487 29.3292 2.9472C29.3292 1.31954 30.6487 5.37456e-05 32.2763 5.3765e-05C39.6402 5.38528e-05 46.7762 2.55337 52.4686 7.22496C58.1609 11.8965 62.0574 18.3974 63.494 25.6197C64.9306 32.8421 63.8185 40.3392 60.3472 46.8335C56.8759 53.3279 51.2602 58.4177 44.4569 61.2357C37.6535 64.0537 30.0836 64.4256 23.0368 62.288C15.99 60.1504 9.90242 55.6355 5.81127 49.5127C1.72013 43.3899 -0.121446 36.0379 0.600338 28.7095C1.32212 21.3811 4.5626 14.5297 9.76964 9.32263C10.9206 8.17169 12.7866 8.17169 13.9375 9.32263C15.0885 10.4736 15.0885 12.3396 13.9375 13.4905C9.69477 17.7333 7.05438 23.3159 6.46626 29.2872Z" fill="url(#paint0_linear)"/>
<path d="M49.9591 31.5346C49.9591 41.1378 42.1742 48.9228 32.5709 48.9228C22.9677 48.9228 15.1827 41.1378 15.1827 31.5346C15.1827 21.9313 22.9677 14.1464 32.5709 14.1464C42.1742 14.1464 49.9591 21.9313 49.9591 31.5346Z" fill="#05050F"/>
<path d="M27.7303 30.2449L32.0034 25.9735L36.2783 30.2484L38.7633 27.7616L32.0034 21L25.2435 27.7599L27.7303 30.2449Z" fill="white"/>
<path d="M21 32.0018L23.485 29.515L25.9717 32.0018L23.485 34.4868L21 32.0018Z" fill="white"/>
<path d="M27.7303 33.7569L32.0034 38.03L36.2783 33.7551L38.7651 36.2384L32.0052 43L25.2435 36.2436L27.7303 33.7569Z" fill="white"/>
<path d="M38.03 32.0018L40.515 29.515L43.0018 32L40.515 34.4885L38.03 32.0018Z" fill="white"/>
<path d="M34.525 32.0002L32.0036 29.4769L30.1389 31.3415L29.9234 31.5553L29.4821 31.9967L32.0036 34.5164L34.525 32.0019V32.0002Z" fill="white"/>
<defs>
<linearGradient id="paint0_linear" x1="16.3615" y1="5.18028e-05" x2="16.4146" y2="62.0716" gradientUnits="userSpaceOnUse">
<stop stop-color="#FFD422"/>
<stop offset="1" stop-color="#FF7D05"/>
</linearGradient>
</defs>
</svg>
