<svg width="65" height="64" viewBox="0 0 65 64" fill="none" xmlns="http://www.w3.org/2000/svg">
<path fill-rule="evenodd" clip-rule="evenodd" d="M7.5612 31.5345C7.5612 34.8775 8.21967 38.1878 9.499 41.2764C10.7783 44.365 12.6535 47.1713 15.0174 49.5352C17.3813 51.8991 20.1876 53.7743 23.2762 55.0536C26.3648 56.3329 29.6751 56.9914 33.0182 56.9914C36.3612 56.9914 39.6715 56.3329 42.7601 55.0536C45.8487 53.7743 48.655 51.8991 51.0189 49.5352C53.3828 47.1713 55.258 44.365 56.5373 41.2764C57.8166 38.1878 58.4751 34.8775 58.4751 31.5345C58.4751 28.1914 57.8166 24.8811 56.5373 21.7925C55.258 18.7039 53.3828 15.8976 51.0189 13.5337C48.655 11.1698 45.8487 9.29463 42.7601 8.0153C39.6715 6.73597 36.3612 6.07751 33.0182 6.07751C29.6751 6.07751 26.3648 6.73597 23.2762 8.0153C20.1876 9.29463 17.3813 11.1698 15.0174 13.5337C12.6535 15.8976 10.7783 18.7039 9.499 21.7925C8.21967 24.8811 7.5612 28.1914 7.5612 31.5345ZM4.97316 43.1511C3.44765 39.4681 2.66247 35.5208 2.66247 31.5345C2.66247 27.5481 3.44765 23.6008 4.97316 19.9178C6.49868 16.2349 8.73466 12.8885 11.5534 10.0697C14.3722 7.25096 17.7186 5.01498 21.4015 3.48947C25.0845 1.96395 29.0318 1.17878 33.0182 1.17878C37.0045 1.17878 40.9518 1.96395 44.6348 3.48947C48.3177 5.01498 51.6641 7.25097 54.4829 10.0697C57.3016 12.8885 59.5376 16.2349 61.0631 19.9178C62.5887 23.6008 63.3738 27.5481 63.3738 31.5345C63.3738 35.5208 62.5887 39.4682 61.0631 43.1511C59.5376 46.834 57.3016 50.1804 54.4829 52.9992C51.6641 55.8179 48.3177 58.0539 44.6348 59.5794C40.9518 61.105 37.0045 61.8901 33.0182 61.8901C29.0318 61.8901 25.0845 61.105 21.4015 59.5794C17.7186 58.0539 14.3722 55.8179 11.5534 52.9992C8.73466 50.1804 6.49868 46.834 4.97316 43.1511Z" fill="#14142B"/>
<path fill-rule="evenodd" clip-rule="evenodd" d="M6.91328 29.2872C6.32516 35.2585 7.8257 41.249 11.1592 46.238C14.4928 51.227 19.453 54.9057 25.1948 56.6475C30.9367 58.3893 37.1048 58.0862 42.6482 55.7901C48.1917 53.4939 52.7675 49.3466 55.5959 44.055C58.4244 38.7633 59.3305 32.6545 58.16 26.7696C56.9894 20.8848 53.8145 15.5878 49.1763 11.7813C44.5381 7.97484 38.7235 5.89436 32.7234 5.89436C31.0957 5.89436 29.7762 4.57487 29.7762 2.9472C29.7762 1.31954 31.0957 5.37456e-05 32.7234 5.3765e-05C40.0872 5.38528e-05 47.2233 2.55337 52.9156 7.22496C58.608 11.8965 62.5044 18.3974 63.941 25.6197C65.3776 32.8421 64.2656 40.3392 60.7943 46.8335C57.3229 53.3279 51.7072 58.4177 44.9039 61.2357C38.1006 64.0537 30.5306 64.4256 23.4838 62.288C16.437 60.1504 10.3494 55.6355 6.25829 49.5127C2.16715 43.3899 0.325575 36.0379 1.04736 28.7095C1.76914 21.3811 5.00963 14.5297 10.2167 9.32263C11.3676 8.17169 13.2336 8.17169 14.3846 9.32263C15.5355 10.4736 15.5355 12.3396 14.3846 13.4905C10.1418 17.7333 7.5014 23.3159 6.91328 29.2872Z" fill="url(#paint0_linear)"/>
<path d="M50.4062 31.5346C50.4062 41.1378 42.6212 48.9228 33.018 48.9228C23.4147 48.9228 15.6298 41.1378 15.6298 31.5346C15.6298 21.9313 23.4147 14.1464 33.018 14.1464C42.6212 14.1464 50.4062 21.9313 50.4062 31.5346Z" fill="#05050F"/>
<path d="M32.5828 32.5741C32.5828 33.096 32.9887 33.502 33.5106 33.502C34.0326 33.502 34.4385 33.096 34.4385 32.5741C34.4385 32.0522 34.0326 31.6462 33.5106 31.6462C32.9887 31.6462 32.5828 32.0522 32.5828 32.5741V32.5741ZM40.4117 31.6462C39.8898 31.6462 39.4838 32.0522 39.4838 32.5741C39.4838 33.096 39.8898 33.502 40.4117 33.502C40.9336 33.502 41.3396 33.096 41.3396 32.5741C41.3396 32.0522 40.9336 31.6462 40.4117 31.6462V31.6462ZM40.4117 38.6633C39.8898 38.6633 39.4838 39.0692 39.4838 39.5911C39.4838 40.1131 39.8898 40.519 40.4117 40.519C40.9336 40.519 41.3396 40.1131 41.3396 39.5911C41.3396 39.0692 40.9336 38.6633 40.4117 38.6633Z" fill="white"/>
<path d="M42.3835 23.9333C41.4556 22.7735 39.7738 22.7155 38.788 23.6434L38.672 23.7593L38.44 23.9333C37.5121 24.6872 36.1203 24.6292 35.2504 23.7593V23.7013C34.9605 23.4114 34.5545 23.1794 34.1486 23.0634C34.0906 23.0634 33.9746 23.0054 33.9166 23.0054H32.9888C32.9308 23.0054 32.8728 23.0054 32.8148 23.0634H32.6988C32.6408 23.0634 32.5828 23.1214 32.5248 23.1214C32.5248 23.1214 32.4668 23.1214 32.4668 23.1794C32.4088 23.1794 32.3508 23.2374 32.2929 23.2374C32.2929 23.2374 32.2349 23.2374 32.2349 23.2954C32.1769 23.3534 32.1189 23.3534 32.0609 23.4114C32.0609 23.4114 32.0029 23.4114 32.0029 23.4694C31.9449 23.5274 31.8869 23.5274 31.8289 23.5854L31.7709 23.6434L31.6549 23.7593L31.423 23.9333C30.4951 24.6872 29.1033 24.6292 28.2914 23.7593C28.2914 23.7593 28.2334 23.7593 28.2334 23.7013L28.1174 23.5854C27.7695 23.2954 27.3635 23.0634 26.8996 23.0054H25.8557C25.8557 23.0634 25.7978 23.0634 25.7398 23.1214H25.6818C25.3918 23.2374 25.1018 23.3534 24.8699 23.5854L24.8119 23.6434L24.6379 23.8173C24.4059 24.0493 24.29 24.3393 24.174 24.5712C24.174 24.6292 24.116 24.6872 24.116 24.7452C24.116 24.8032 24.058 24.8612 24.058 24.9772C24 25.3831 24 25.7891 24.116 26.195C24.116 26.253 24.174 26.311 24.174 26.369V26.427C24.174 26.485 24.232 26.543 24.232 26.6009C24.29 26.6589 24.29 26.7169 24.348 26.8329C24.4639 26.8909 24.5799 27.0069 24.6379 27.0649L24.7539 27.1809L24.8699 27.2969C25.7398 28.1667 25.7398 29.6745 24.8119 30.6024C24.6959 30.7184 24.5219 30.8924 24.4639 31.0083C24.4059 31.0663 24.4059 31.1243 24.348 31.2403V31.2983C24.29 31.3563 24.29 31.4143 24.232 31.4723V31.5303C24.232 31.5883 24.174 31.6463 24.174 31.7042V31.7622C24.174 31.8202 24.174 31.8782 24.116 31.9362V32.8061C24.116 32.8641 24.116 32.9221 24.174 32.9801V33.0381C24.29 33.444 24.5219 33.8499 24.8699 34.1979C25.7978 35.1258 25.7978 36.6336 24.8699 37.5614L24.8119 37.6194L24.6959 37.7354V37.7934C24.6379 37.8514 24.5799 37.9094 24.5799 37.9674C24.5799 37.9674 24.5799 38.0254 24.5219 38.0254C24.4639 38.0834 24.4639 38.1414 24.4059 38.1993L24.348 38.2573C24.348 38.3153 24.29 38.3153 24.29 38.3733C24.29 38.4313 24.232 38.4313 24.232 38.4893C24.232 38.5473 24.232 38.5473 24.174 38.6053C24.058 38.8373 24 39.1272 24 39.3592V39.8231C24.058 39.9971 24.058 40.1711 24.174 40.2871C24.174 40.3451 24.232 40.403 24.232 40.403C24.232 40.403 24.232 40.461 24.29 40.461C24.29 40.519 24.348 40.577 24.348 40.635C24.348 40.635 24.348 40.693 24.4059 40.693C24.4639 40.809 24.5219 40.867 24.5799 40.925C24.5799 40.925 24.5799 40.983 24.6379 40.983C24.6379 40.983 24.6379 41.041 24.6959 41.041C24.6959 41.0989 24.7539 41.0989 24.7539 41.0989L24.8119 41.1569C24.8699 41.2149 24.9279 41.2149 24.9279 41.2729L24.9859 41.3309C24.9859 41.3309 25.0439 41.3309 25.0439 41.3889C25.1018 41.4469 25.1598 41.5049 25.2178 41.5049C25.2178 41.5049 25.2758 41.5049 25.2758 41.5629C25.3338 41.6209 25.3918 41.6209 25.4498 41.6789H25.5078C25.5658 41.7369 25.6238 41.7369 25.7398 41.7369C25.7978 41.7369 25.9137 41.7949 25.9717 41.7949H26.0297C26.0877 41.7949 26.1457 41.7949 26.2037 41.8528H26.7256C26.8996 41.8528 27.0156 41.7949 27.1896 41.7949H27.2476C27.3055 41.7949 27.3635 41.7369 27.4215 41.7369H27.4795C27.5375 41.7369 27.5955 41.6789 27.6535 41.6789H27.7115C27.8275 41.6209 28.0014 41.5049 28.1174 41.4469L28.2914 41.2729L28.3494 41.2149C29.2773 40.2291 30.7851 40.2291 31.7129 41.2149C32.7568 42.3168 34.4966 42.2588 35.4824 41.041C36.1783 40.1711 36.1783 38.8953 35.4824 37.9674C34.5545 36.8075 32.8728 36.7495 31.8869 37.6774L31.7709 37.7934L31.539 37.9674C30.6111 38.7213 29.2193 38.6633 28.3494 37.7934L28.2334 37.6774L28.0594 37.4455C27.3055 36.5176 27.3635 35.1258 28.2334 34.2559C28.7553 33.792 28.9873 33.154 28.9873 32.5161V32.3422C28.9873 31.7622 28.7553 31.1823 28.2914 30.7764C28.2914 30.7184 28.2334 30.7184 28.2334 30.6604L28.0594 30.4284C27.3055 29.5005 27.3635 28.1087 28.2334 27.2389L28.2914 27.1809L28.3494 27.1229C29.2773 26.137 30.7851 26.137 31.7129 27.1229L31.7709 27.1809L31.8289 27.2389L31.9449 27.3548C32.0029 27.3548 32.0029 27.4128 32.0609 27.4128C32.1189 27.4128 32.1189 27.4708 32.1769 27.4708C32.2349 27.4708 32.2349 27.5288 32.2929 27.5288C32.3508 27.5288 32.3508 27.5868 32.4088 27.5868C32.4668 27.5868 32.4668 27.6448 32.5248 27.6448C32.5828 27.6448 32.5828 27.7028 32.6408 27.7028C32.6988 27.7028 32.6988 27.7028 32.7568 27.7608C32.8148 27.7608 32.8148 27.7608 32.8728 27.8188H33.8586C33.9166 27.8188 33.9746 27.8188 34.0326 27.7608H34.1486C34.2066 27.7608 34.2646 27.7028 34.3226 27.7028H34.3806C34.4386 27.7028 34.4966 27.6448 34.6125 27.5868C34.8445 27.4708 35.0765 27.2969 35.2504 27.1229L35.3084 27.0649C36.2363 26.079 37.7441 26.079 38.672 27.0649C39.6578 28.2247 41.4556 28.1667 42.3835 26.9489C43.0794 26.079 43.0794 24.8032 42.3835 23.9333" fill="white"/>
<defs>
<linearGradient id="paint0_linear" x1="0.894044" y1="5.33854e-05" x2="0.894043" y2="61.3377" gradientUnits="userSpaceOnUse">
<stop stop-color="#4DFFDF"/>
<stop offset="1" stop-color="#4DA1FF"/>
</linearGradient>
</defs>
</svg>
