<svg width="64" height="64" viewBox="0 0 64 64" fill="none" xmlns="http://www.w3.org/2000/svg">
<path fill-rule="evenodd" clip-rule="evenodd" d="M7.00835 31.5347C7.00835 34.8778 7.66681 38.1881 8.94614 41.2767C10.2255 44.3652 12.1006 47.1716 14.4645 49.5355C16.8284 51.8994 19.6348 53.7745 22.7233 55.0539C25.8119 56.3332 29.1222 56.9916 32.4653 56.9917C35.8084 56.9917 39.1187 56.3332 42.2072 55.0539C45.2958 53.7745 48.1022 51.8994 50.4661 49.5355C52.83 47.1716 54.7051 44.3652 55.9845 41.2767C57.2638 38.1881 57.9222 34.8778 57.9222 31.5347C57.9222 28.1916 57.2638 24.8813 55.9845 21.7927C54.7051 18.7042 52.83 15.8978 50.4661 13.5339C48.1022 11.17 45.2958 9.29488 42.2073 8.01555C39.1187 6.73622 35.8084 6.07775 32.4653 6.07775C29.1222 6.07775 25.8119 6.73622 22.7233 8.01555C19.6348 9.29488 16.8284 11.17 14.4645 13.5339C12.1006 15.8978 10.2255 18.7042 8.94614 21.7927C7.66681 24.8813 7.00835 28.1916 7.00835 31.5347ZM4.42031 43.1513C2.89479 39.4684 2.10962 35.5211 2.10962 31.5347C2.10962 27.5483 2.89479 23.601 4.42031 19.9181C5.94582 16.2352 8.18181 12.8888 11.0006 10.07C13.8194 7.25121 17.1658 5.01522 20.8487 3.48971C24.5316 1.96419 28.4789 1.17902 32.4653 1.17902C36.4517 1.17902 40.399 1.96419 44.0819 3.48971C47.7648 5.01523 51.1112 7.25121 53.93 10.07C56.7488 12.8888 58.9848 16.2352 60.5103 19.9181C62.0358 23.601 62.821 27.5483 62.821 31.5347C62.821 35.5211 62.0358 39.4684 60.5103 43.1513C58.9848 46.8342 56.7488 50.1806 53.93 52.9994C51.1112 55.8182 47.7648 58.0542 44.0819 59.5797C40.399 61.1052 36.4517 61.8904 32.4653 61.8904C28.4789 61.8904 24.5316 61.1052 20.8487 59.5797C17.1658 58.0542 13.8194 55.8182 11.0006 52.9994C8.1818 50.1806 5.94582 46.8342 4.42031 43.1513Z" fill="#14142B"/>
<path fill-rule="evenodd" clip-rule="evenodd" d="M6.36055 29.2872C5.77243 35.2585 7.27297 41.249 10.6065 46.238C13.94 51.227 18.9003 54.9057 24.6421 56.6475C30.3839 58.3893 36.552 58.0862 42.0955 55.7901C47.6389 53.4939 52.2147 49.3466 55.0432 44.055C57.8717 38.7633 58.7778 32.6545 57.6072 26.7696C56.4367 20.8848 53.2618 15.5878 48.6236 11.7813C43.9854 7.97484 38.1708 5.89436 32.1706 5.89436C30.5429 5.89436 29.2235 4.57487 29.2235 2.9472C29.2235 1.31954 30.5429 5.37456e-05 32.1706 5.3765e-05C39.5345 5.38528e-05 46.6705 2.55337 52.3629 7.22496C58.0552 11.8965 61.9517 18.3974 63.3883 25.6197C64.8249 32.8421 63.7128 40.3392 60.2415 46.8335C56.7702 53.3279 51.1545 58.4177 44.3511 61.2357C37.5478 64.0537 29.9779 64.4256 22.9311 62.288C15.8843 60.1504 9.7967 55.6355 5.70556 49.5127C1.61441 43.3899 -0.227159 36.0379 0.494625 28.7095C1.21641 21.3811 4.45689 14.5297 9.66393 9.32263C10.8149 8.17169 12.6809 8.17169 13.8318 9.32263C14.9828 10.4736 14.9828 12.3396 13.8318 13.4905C9.58906 17.7333 6.94867 23.3159 6.36055 29.2872Z" fill="url(#paint0_linear)"/>
<path d="M49.8536 31.5346C49.8536 41.1378 42.0686 48.9228 32.4654 48.9228C22.8621 48.9228 15.0771 41.1378 15.0771 31.5346C15.0771 21.9313 22.8621 14.1464 32.4654 14.1464C42.0686 14.1464 49.8536 21.9313 49.8536 31.5346Z" fill="#05050F"/>
<path d="M39.0457 34.353C38.8997 34.4551 38.7292 34.5154 38.5522 34.5274C38.3752 34.5395 38.1983 34.5029 38.0401 34.4215C37.6688 34.2087 37.4686 33.7097 37.4686 33.0296V30.9454C37.4686 29.9449 37.078 29.233 36.4245 29.0398C35.32 28.712 34.4953 30.0843 34.177 30.6005L32.2237 33.8075V29.8935C32.202 28.9909 31.9127 28.4502 31.3653 28.2888C31.0036 28.1812 30.461 28.2252 29.9329 29.0422L25.5658 36.1535C24.9847 35.0257 24.6834 33.7713 24.688 32.4988C24.688 28.213 28.064 24.7271 32.2237 24.7271C36.3835 24.7271 39.7715 28.213 39.7715 32.4988V32.5208C39.7715 32.5208 39.7715 32.5355 39.7715 32.5428C39.8125 33.3721 39.5473 34.0326 39.0481 34.353H39.0457ZM41.4571 32.5012V32.4596C41.4234 27.2369 37.295 23 32.2237 23C27.1525 23 23 27.2614 23 32.4988C23 37.7362 27.138 42 32.2237 42C34.5563 41.9999 36.8001 41.0929 38.4935 39.4657C38.6579 39.3086 38.7546 39.0921 38.7627 38.8632C38.7708 38.6342 38.6897 38.4112 38.5369 38.2426C38.4638 38.1605 38.3754 38.0939 38.2768 38.0467C38.1782 37.9994 38.0714 37.9724 37.9625 37.9672C37.8535 37.9619 37.7447 37.9786 37.6421 38.0162C37.5396 38.0538 37.4454 38.1116 37.3649 38.1863C36.6359 38.8879 35.7746 39.4327 34.8327 39.7882C33.8909 40.1437 32.888 40.3024 31.8842 40.2549C30.8804 40.2074 29.8964 39.9546 28.9913 39.5117C28.0862 39.0688 27.2786 38.4449 26.6172 37.6775L30.5478 31.2683V34.2258C30.5478 35.6471 31.0904 36.107 31.5461 36.2415C32.0019 36.3761 32.6988 36.2831 33.4295 35.0796L35.5998 31.5154C35.6673 31.4004 35.7324 31.3026 35.7903 31.2169V33.0296C35.7903 34.3579 36.316 35.4196 37.2371 35.9431C37.656 36.1725 38.128 36.2833 38.6036 36.2639C39.0792 36.2446 39.541 36.0957 39.9403 35.833C40.9532 35.1652 41.5054 33.9567 41.4475 32.5012H41.4571Z" fill="white"/>
<defs>
<linearGradient id="paint0_linear" x1="0.341309" y1="31.8293" x2="63.9999" y2="31.8293" gradientUnits="userSpaceOnUse">
<stop stop-color="#8AFF6C"/>
<stop offset="1" stop-color="#02C751"/>
</linearGradient>
</defs>
</svg>
